<?xml version="1.0" encoding="UTF-8" standalone="no"?>
<svg width="120.297mm" height="25.4mm"
 xmlns="http://www.w3.org/2000/svg" xmlns:xlink="http://www.w3.org/1999/xlink"  version="1.2" baseProfile="tiny">
<title>Qt SVG Document</title>
<desc>Generated with Qt</desc>
<defs>
</defs>
<g fill="none" stroke="black" stroke-width="1" fill-rule="evenodd" stroke-linecap="square" stroke-linejoin="bevel" >

<g fill="none" stroke="#000000" stroke-opacity="1" stroke-width="1" stroke-linecap="square" stroke-linejoin="bevel" transform="matrix(1,0,0,1,0,0)"
font-family="Ubuntu" font-size="11" font-weight="400" font-style="normal" 
>
</g>

<g fill="none" stroke="#000000" stroke-opacity="1" stroke-width="1" stroke-linecap="square" stroke-linejoin="bevel" transform="matrix(1,0,0,1,0,0)"
font-family="Ubuntu" font-size="11" font-weight="400" font-style="normal" 
>
</g>

<g fill="none" stroke="#000000" stroke-opacity="1" stroke-width="1" stroke-linecap="square" stroke-linejoin="bevel" transform="matrix(2,0,0,2,0,72)"
font-family="Ubuntu" font-size="11" font-weight="400" font-style="normal" 
>
</g>

<g fill="#ffffff" fill-opacity="1" stroke="none" transform="matrix(2,0,0,2,0,72)"
font-family="Ubuntu" font-size="11" font-weight="400" font-style="normal" 
>
<rect x="0" y="-36" width="170.49" height="36"/>
</g>

<g fill="none" stroke="#000000" stroke-opacity="1" stroke-width="1" stroke-linecap="square" stroke-linejoin="bevel" transform="matrix(2,0,0,2,0,72)"
font-family="Ubuntu" font-size="11" font-weight="400" font-style="normal" 
>
</g>

<g fill="none" stroke="#000000" stroke-opacity="1" stroke-width="1" stroke-linecap="square" stroke-linejoin="bevel" transform="matrix(2,0,0,2,0,72)"
font-family="Ubuntu" font-size="11" font-weight="400" font-style="normal" 
>
</g>

<g fill="none" stroke="#000000" stroke-opacity="1" stroke-width="1" stroke-linecap="square" stroke-linejoin="bevel" transform="matrix(2,0,0,2,0,72)"
font-family="Ubuntu" font-size="11" font-weight="400" font-style="normal" 
>
</g>

<g fill="none" stroke="#000000" stroke-opacity="1" stroke-width="1" stroke-linecap="square" stroke-linejoin="bevel" transform="matrix(2,0,0,2,0,72)"
font-family="Ubuntu" font-size="11" font-weight="400" font-style="normal" 
>
</g>

<g fill="none" stroke="#000000" stroke-opacity="1" stroke-width="1" stroke-linecap="square" stroke-linejoin="round" transform="matrix(2,0,0,2,0,72)"
font-family="Ubuntu" font-size="11" font-weight="400" font-style="normal" 
>
<ellipse cx="42.246" cy="-18" rx="41.746" ry="17.5"/>
</g>

<g fill="none" stroke="#000000" stroke-opacity="1" stroke-width="1" stroke-linecap="square" stroke-linejoin="bevel" transform="matrix(2,0,0,2,0,72)"
font-family="Ubuntu" font-size="11" font-weight="400" font-style="normal" 
>
</g>

<g fill="none" stroke="#000000" stroke-opacity="1" stroke-width="1" stroke-linecap="square" stroke-linejoin="bevel" transform="matrix(2,0,0,2,37.5076,22)"
font-family="Ubuntu" font-size="11" font-weight="400" font-style="normal" 
>
</g>

<g fill="none" stroke="#000000" stroke-opacity="1" stroke-width="1" stroke-linecap="square" stroke-linejoin="bevel" transform="matrix(2,0,0,2,37.5076,22)"
font-family="sans" font-size="11" font-weight="100" font-style="normal" 
>
</g>

<g fill="#000000" fill-opacity="1" stroke="#000000" stroke-opacity="1" stroke-width="1" stroke-linecap="square" stroke-linejoin="round" transform="matrix(2,0,0,2,37.5076,22)"
font-family="sans" font-size="11" font-weight="100" font-style="normal" 
>
<path vector-effect="none" fill-rule="nonzero" d="M2.79688,2.98438 L3.70313,2.98438 L0.90625,12.0156 L0,12.0156 L2.79688,2.98438 M7.07813,5.67188 C6.54688,5.67188 6.1276,5.88021 5.82031,6.29688 C5.51302,6.71354 5.35938,7.28125 5.35938,8 C5.35938,8.71875 5.51042,9.28385 5.8125,9.69531 C6.11458,10.1068 6.53646,10.3125 7.07813,10.3125 C7.59896,10.3125 8.01302,10.1068 8.32031,9.69531 C8.6276,9.28385 8.78125,8.71875 8.78125,8 C8.78125,7.28125 8.6276,6.71354 8.32031,6.29688 C8.01302,5.88021 7.59896,5.67188 7.07813,5.67188 M7.07813,4.84375 C7.93229,4.84375 8.60417,5.1224 9.09375,5.67969 C9.58333,6.23698 9.82813,7.01042 9.82813,8 C9.82813,8.97917 9.58333,9.75 9.09375,10.3125 C8.60417,10.875 7.93229,11.1563 7.07813,11.1563 C6.21354,11.1563 5.53646,10.875 5.04688,10.3125 C4.55729,9.75 4.3125,8.97917 4.3125,8 C4.3125,7.01042 4.55729,6.23698 5.04688,5.67969 C5.53646,5.1224 6.21354,4.84375 7.07813,4.84375 M11.4531,4.98438 L12.4531,4.98438 L12.4531,11 L11.4531,11 L11.4531,4.98438 M11.4531,2.64063 L12.4531,2.64063 L12.4531,3.89063 L11.4531,3.89063 L11.4531,2.64063 M19.5,7.375 L19.5,11 L18.5156,11 L18.5156,7.40625 C18.5156,6.83333 18.4063,6.40625 18.1875,6.125 C17.9688,5.84375 17.6354,5.70313 17.1875,5.70313 C16.6563,5.70313 16.237,5.8724 15.9297,6.21094 C15.6224,6.54948 15.4688,7.01042 15.4688,7.59375 L15.4688,11 L14.4688,11 L14.4688,4.98438 L15.4688,4.98438 L15.4688,5.92188 C15.6979,5.55729 15.974,5.28646 16.2969,5.10938 C16.6198,4.93229 16.9896,4.84375 17.4063,4.84375 C18.0938,4.84375 18.6146,5.05729 18.9688,5.48438 C19.3229,5.91146 19.5,6.54167 19.5,7.375 M22.4531,3.28125 L22.4531,4.98438 L24.4844,4.98438 L24.4844,5.75 L22.4531,5.75 L22.4531,9.01563 C22.4531,9.50521 22.5208,9.82031 22.6563,9.96094 C22.7917,10.1016 23.0625,10.1719 23.4688,10.1719 L24.4844,10.1719 L24.4844,11 L23.4688,11 C22.7083,11 22.1823,10.8568 21.8906,10.5703 C21.599,10.2839 21.4531,9.76563 21.4531,9.01563 L21.4531,5.75 L20.7344,5.75 L20.7344,4.98438 L21.4531,4.98438 L21.4531,3.28125 L22.4531,3.28125 M30.3594,12.8281 L30.3594,13.5938 L24.6406,13.5938 L24.6406,12.8281 L30.3594,12.8281 M35.125,5.15625 L35.125,6.09375 C34.8438,5.94792 34.5521,5.84115 34.25,5.77344 C33.9479,5.70573 33.6354,5.67188 33.3125,5.67188 C32.8229,5.67188 32.4557,5.7474 32.2109,5.89844 C31.9661,6.04948 31.8438,6.27083 31.8438,6.5625 C31.8438,6.79167 31.9323,6.97135 32.1094,7.10156 C32.2865,7.23177 32.6406,7.35938 33.1719,7.48438 L33.5,7.5625 C34.2083,7.70833 34.7083,7.91927 35,8.19531 C35.2917,8.47135 35.4375,8.85417 35.4375,9.34375 C35.4375,9.89583 35.2188,10.3359 34.7813,10.6641 C34.3438,10.9922 33.7344,11.1563 32.9531,11.1563 C32.6302,11.1563 32.2943,11.125 31.9453,11.0625 C31.5964,11 31.2292,10.9063 30.8438,10.7813 L30.8438,9.76563 C31.2083,9.95313 31.5677,10.0938 31.9219,10.1875 C32.276,10.2813 32.6302,10.3281 32.9844,10.3281 C33.4427,10.3281 33.7969,10.2474 34.0469,10.0859 C34.2969,9.92448 34.4219,9.70313 34.4219,9.42188 C34.4219,9.15104 34.3333,8.94271 34.1563,8.79688 C33.9792,8.65104 33.5833,8.51563 32.9688,8.39063 L32.625,8.29688 C32.0104,8.17188 31.5677,7.97656 31.2969,7.71094 C31.026,7.44531 30.8906,7.07813 30.8906,6.60938 C30.8906,6.04688 31.0911,5.61198 31.4922,5.30469 C31.8932,4.9974 32.4635,4.84375 33.2031,4.84375 C33.5677,4.84375 33.9115,4.86979 34.2344,4.92188 C34.5573,4.97396 34.8542,5.05208 35.125,5.15625 M40.4844,5.90625 C40.3802,5.84375 40.263,5.79688 40.1328,5.76563 C40.0026,5.73438 39.8594,5.71875 39.7031,5.71875 C39.1406,5.71875 38.7109,5.90104 38.4141,6.26563 C38.1172,6.63021 37.9688,7.15104 37.9688,7.82813 L37.9688,11 L36.9688,11 L36.9688,4.98438 L37.9688,4.98438 L37.9688,5.92188 C38.1667,5.55729 38.4323,5.28646 38.7656,5.10938 C39.099,4.93229 39.5052,4.84375 39.9844,4.84375 C40.0573,4.84375 40.1328,4.84635 40.2109,4.85156 C40.2891,4.85677 40.3802,4.86979 40.4844,4.89063 L40.4844,5.90625 M40.8125,4.98438 L41.8594,4.98438 L43.7344,10.0313 L45.625,4.98438 L46.6719,4.98438 L44.4063,11 L43.0625,11 L40.8125,4.98438"/>
</g>

<g fill="none" stroke="#000000" stroke-opacity="1" stroke-width="1" stroke-linecap="square" stroke-linejoin="bevel" transform="matrix(2,0,0,2,37.5076,22)"
font-family="sans" font-size="11" font-weight="100" font-style="normal" 
>
</g>

<g fill="none" stroke="#000000" stroke-opacity="1" stroke-width="1" stroke-linecap="square" stroke-linejoin="bevel" transform="matrix(2,0,0,2,37.5076,22)"
font-family="Ubuntu" font-size="11" font-weight="400" font-style="normal" 
>
</g>

<g fill="none" stroke="#000000" stroke-opacity="1" stroke-width="1" stroke-linecap="square" stroke-linejoin="bevel" transform="matrix(2,0,0,2,0,72)"
font-family="Ubuntu" font-size="11" font-weight="400" font-style="normal" 
>
</g>

<g fill="none" stroke="#000000" stroke-opacity="1" stroke-width="1" stroke-linecap="square" stroke-linejoin="bevel" transform="matrix(2,0,0,2,0,72)"
font-family="Ubuntu" font-size="11" font-weight="400" font-style="normal" 
>
</g>

<g fill="none" stroke="#000000" stroke-opacity="1" stroke-width="1" stroke-linecap="square" stroke-linejoin="bevel" transform="matrix(2,0,0,2,0,72)"
font-family="Ubuntu" font-size="11" font-weight="400" font-style="normal" 
>
</g>

<g fill="none" stroke="#000000" stroke-opacity="1" stroke-width="1" stroke-linecap="square" stroke-linejoin="round" transform="matrix(2,0,0,2,0,72)"
font-family="Ubuntu" font-size="11" font-weight="400" font-style="normal" 
>
<rect x="98.99" y="-35.5" width="71" height="35"/>
</g>

<g fill="none" stroke="#000000" stroke-opacity="1" stroke-width="1" stroke-linecap="square" stroke-linejoin="bevel" transform="matrix(2,0,0,2,0,72)"
font-family="Ubuntu" font-size="11" font-weight="400" font-style="normal" 
>
</g>

<g fill="none" stroke="#000000" stroke-opacity="1" stroke-width="1" stroke-linecap="square" stroke-linejoin="bevel" transform="matrix(2,0,0,2,215.793,22)"
font-family="Ubuntu" font-size="11" font-weight="400" font-style="normal" 
>
</g>

<g fill="none" stroke="#000000" stroke-opacity="1" stroke-width="1" stroke-linecap="square" stroke-linejoin="bevel" transform="matrix(2,0,0,2,215.793,22)"
font-family="sans" font-size="11" font-weight="100" font-style="normal" 
>
</g>

<g fill="#000000" fill-opacity="1" stroke="#000000" stroke-opacity="1" stroke-width="1" stroke-linecap="square" stroke-linejoin="round" transform="matrix(2,0,0,2,215.793,22)"
font-family="sans" font-size="11" font-weight="100" font-style="normal" 
>
<path vector-effect="none" fill-rule="nonzero" d="M2.79688,2.98438 L3.70313,2.98438 L0.90625,12.0156 L0,12.0156 L2.79688,2.98438 M8.03125,3.71875 C7.25,3.71875 6.6276,4.01302 6.16406,4.60156 C5.70052,5.1901 5.46875,5.98958 5.46875,7 C5.46875,8.01042 5.70052,8.8099 6.16406,9.39844 C6.6276,9.98698 7.25,10.2813 8.03125,10.2813 C8.82292,10.2813 9.44792,9.98698 9.90625,9.39844 C10.3646,8.8099 10.5938,8.01042 10.5938,7 C10.5938,5.98958 10.3646,5.1901 9.90625,4.60156 C9.44792,4.01302 8.82292,3.71875 8.03125,3.71875 M8.03125,2.82813 C9.15625,2.82813 10.0573,3.20573 10.7344,3.96094 C11.4115,4.71615 11.75,5.72917 11.75,7 C11.75,8.26042 11.4115,9.26823 10.7344,10.0234 C10.0573,10.7786 9.15625,11.1563 8.03125,11.1563 C6.90625,11.1563 6.00781,10.7813 5.33594,10.0313 C4.66406,9.28125 4.32813,8.27083 4.32813,7 C4.32813,5.72917 4.66406,4.71615 5.33594,3.96094 C6.00781,3.20573 6.90625,2.82813 8.03125,2.82813 M13.3906,4.98438 L14.3906,4.98438 L14.3906,11 L13.3906,11 L13.3906,4.98438 M13.3906,2.64063 L14.3906,2.64063 L14.3906,3.89063 L13.3906,3.89063 L13.3906,2.64063 M21.4375,7.375 L21.4375,11 L20.4531,11 L20.4531,7.40625 C20.4531,6.83333 20.3438,6.40625 20.125,6.125 C19.9063,5.84375 19.5729,5.70313 19.125,5.70313 C18.5938,5.70313 18.1745,5.8724 17.8672,6.21094 C17.5599,6.54948 17.4063,7.01042 17.4063,7.59375 L17.4063,11 L16.4063,11 L16.4063,4.98438 L17.4063,4.98438 L17.4063,5.92188 C17.6354,5.55729 17.9115,5.28646 18.2344,5.10938 C18.5573,4.93229 18.9271,4.84375 19.3438,4.84375 C20.0313,4.84375 20.5521,5.05729 20.9063,5.48438 C21.2604,5.91146 21.4375,6.54167 21.4375,7.375 M24.3906,3.28125 L24.3906,4.98438 L26.4219,4.98438 L26.4219,5.75 L24.3906,5.75 L24.3906,9.01563 C24.3906,9.50521 24.4583,9.82031 24.5938,9.96094 C24.7292,10.1016 25,10.1719 25.4063,10.1719 L26.4219,10.1719 L26.4219,11 L25.4063,11 C24.6458,11 24.1198,10.8568 23.8281,10.5703 C23.5365,10.2839 23.3906,9.76563 23.3906,9.01563 L23.3906,5.75 L22.6719,5.75 L22.6719,4.98438 L23.3906,4.98438 L23.3906,3.28125 L24.3906,3.28125 M30.4531,4.04688 L28.9688,8.04688 L31.9219,8.04688 L30.4531,4.04688 M29.8281,2.98438 L31.0625,2.98438 L34.125,11 L33,11 L32.2656,8.9375 L28.6406,8.9375 L27.9219,11 L26.7813,11 L29.8281,2.98438 M40.2344,4.98438 L38.0625,7.90625 L40.3594,11 L39.1875,11 L37.4375,8.64063 L35.6875,11 L34.5156,11 L36.8594,7.85938 L34.7188,4.98438 L35.8906,4.98438 L37.4844,7.125 L39.0781,4.98438 L40.2344,4.98438 M46.8906,7.75 L46.8906,8.23438 L42.3438,8.23438 C42.3854,8.91146 42.5885,9.42708 42.9531,9.78125 C43.3177,10.1354 43.8281,10.3125 44.4844,10.3125 C44.8698,10.3125 45.2396,10.2656 45.5938,10.1719 C45.9479,10.0781 46.3021,9.94271 46.6563,9.76563 L46.6563,10.6875 C46.3021,10.8438 45.9375,10.9609 45.5625,11.0391 C45.1875,11.1172 44.8125,11.1563 44.4375,11.1563 C43.4688,11.1563 42.7057,10.8776 42.1484,10.3203 C41.5911,9.76302 41.3125,9.00521 41.3125,8.04688 C41.3125,7.06771 41.5781,6.28906 42.1094,5.71094 C42.6406,5.13281 43.3594,4.84375 44.2656,4.84375 C45.0677,4.84375 45.7057,5.10417 46.1797,5.625 C46.6536,6.14583 46.8906,6.85417 46.8906,7.75 M45.8906,7.45313 C45.8906,6.91146 45.7422,6.47917 45.4453,6.15625 C45.1484,5.83333 44.7552,5.67188 44.2656,5.67188 C43.7135,5.67188 43.2734,5.82813 42.9453,6.14063 C42.6172,6.45313 42.4271,6.89063 42.375,7.45313 L45.8906,7.45313 M52.3438,5.15625 L52.3438,6.09375 C52.0625,5.94792 51.7708,5.84115 51.4688,5.77344 C51.1667,5.70573 50.8542,5.67188 50.5313,5.67188 C50.0417,5.67188 49.6745,5.7474 49.4297,5.89844 C49.1849,6.04948 49.0625,6.27083 49.0625,6.5625 C49.0625,6.79167 49.151,6.97135 49.3281,7.10156 C49.5052,7.23177 49.8594,7.35938 50.3906,7.48438 L50.7188,7.5625 C51.4271,7.70833 51.9271,7.91927 52.2188,8.19531 C52.5104,8.47135 52.6563,8.85417 52.6563,9.34375 C52.6563,9.89583 52.4375,10.3359 52,10.6641 C51.5625,10.9922 50.9531,11.1563 50.1719,11.1563 C49.849,11.1563 49.513,11.125 49.1641,11.0625 C48.8151,11 48.4479,10.9063 48.0625,10.7813 L48.0625,9.76563 C48.4271,9.95313 48.7865,10.0938 49.1406,10.1875 C49.4948,10.2813 49.849,10.3281 50.2031,10.3281 C50.6615,10.3281 51.0156,10.2474 51.2656,10.0859 C51.5156,9.92448 51.6406,9.70313 51.6406,9.42188 C51.6406,9.15104 51.5521,8.94271 51.375,8.79688 C51.1979,8.65104 50.8021,8.51563 50.1875,8.39063 L49.8438,8.29688 C49.2292,8.17188 48.7865,7.97656 48.5156,7.71094 C48.2448,7.44531 48.1094,7.07813 48.1094,6.60938 C48.1094,6.04688 48.3099,5.61198 48.7109,5.30469 C49.112,4.9974 49.6823,4.84375 50.4219,4.84375 C50.7865,4.84375 51.1302,4.86979 51.4531,4.92188 C51.776,4.97396 52.0729,5.05208 52.3438,5.15625 "/>
</g>

<g fill="none" stroke="#000000" stroke-opacity="1" stroke-width="1" stroke-linecap="square" stroke-linejoin="bevel" transform="matrix(2,0,0,2,215.793,22)"
font-family="sans" font-size="11" font-weight="100" font-style="normal" 
>
</g>

<g fill="none" stroke="#000000" stroke-opacity="1" stroke-width="1" stroke-linecap="square" stroke-linejoin="bevel" transform="matrix(2,0,0,2,215.793,22)"
font-family="Ubuntu" font-size="11" font-weight="400" font-style="normal" 
>
</g>

<g fill="none" stroke="#000000" stroke-opacity="1" stroke-width="1" stroke-linecap="square" stroke-linejoin="bevel" transform="matrix(2,0,0,2,0,72)"
font-family="Ubuntu" font-size="11" font-weight="400" font-style="normal" 
>
</g>

<g fill="none" stroke="#000000" stroke-opacity="1" stroke-width="1" stroke-linecap="square" stroke-linejoin="bevel" transform="matrix(2,0,0,2,0,72)"
font-family="Ubuntu" font-size="11" font-weight="400" font-style="normal" 
>
</g>

<g fill="none" stroke="#000000" stroke-opacity="1" stroke-width="1" stroke-linecap="square" stroke-linejoin="bevel" transform="matrix(2,0,0,2,0,72)"
font-family="Ubuntu" font-size="11" font-weight="400" font-style="normal" 
>
</g>

<g fill="none" stroke="#000000" stroke-opacity="1" stroke-width="1" stroke-linecap="square" stroke-linejoin="round" transform="matrix(2,0,0,2,0,72)"
font-family="Ubuntu" font-size="11" font-weight="400" font-style="normal" 
>
<path vector-effect="none" fill-rule="evenodd" d="M84.59,-18 C85.75,-18 86.914,-18 88.077,-18 "/>
</g>

<g fill="none" stroke="#000000" stroke-opacity="1" stroke-width="1" stroke-linecap="square" stroke-linejoin="bevel" transform="matrix(2,0,0,2,0,72)"
font-family="Ubuntu" font-size="11" font-weight="400" font-style="normal" 
>
</g>

<g fill="none" stroke="#000000" stroke-opacity="1" stroke-width="1" stroke-linecap="square" stroke-linejoin="bevel" transform="matrix(2,0,0,2,0,72)"
font-family="Ubuntu" font-size="11" font-weight="400" font-style="normal" 
>
</g>

<g fill="#000000" fill-opacity="1" stroke="#000000" stroke-opacity="1" stroke-width="1" stroke-linecap="square" stroke-linejoin="round" transform="matrix(2,0,0,2,0,72)"
font-family="Ubuntu" font-size="11" font-weight="400" font-style="normal" 
>
<path vector-effect="none" fill-rule="evenodd" d="M88.077,-18 L88.077,-14.3593 L98.479,-18 L88.077,-21.6407 L88.077,-18"/>
</g>

<g fill="none" stroke="#000000" stroke-opacity="1" stroke-width="1" stroke-linecap="square" stroke-linejoin="bevel" transform="matrix(2,0,0,2,0,72)"
font-family="Ubuntu" font-size="11" font-weight="400" font-style="normal" 
>
</g>

<g fill="none" stroke="#000000" stroke-opacity="1" stroke-width="1" stroke-linecap="square" stroke-linejoin="bevel" transform="matrix(1,0,0,1,0,0)"
font-family="Ubuntu" font-size="11" font-weight="400" font-style="normal" 
>
</g>
</g>
</svg>
