<?xml version="1.0" encoding="UTF-8" standalone="no"?>
<svg width="329.847mm" height="101.6mm"
 xmlns="http://www.w3.org/2000/svg" xmlns:xlink="http://www.w3.org/1999/xlink"  version="1.2" baseProfile="tiny">
<title>Qt SVG Document</title>
<desc>Generated with Qt</desc>
<defs>
</defs>
<g fill="none" stroke="black" stroke-width="1" fill-rule="evenodd" stroke-linecap="square" stroke-linejoin="bevel" >

<g fill="none" stroke="#000000" stroke-opacity="1" stroke-width="1" stroke-linecap="square" stroke-linejoin="bevel" transform="matrix(1,0,0,1,0,0)"
font-family="Ubuntu" font-size="11" font-weight="400" font-style="normal" 
>
</g>

<g fill="none" stroke="#000000" stroke-opacity="1" stroke-width="1" stroke-linecap="square" stroke-linejoin="bevel" transform="matrix(1,0,0,1,0,0)"
font-family="Ubuntu" font-size="11" font-weight="400" font-style="normal" 
>
</g>

<g fill="none" stroke="#000000" stroke-opacity="1" stroke-width="1" stroke-linecap="square" stroke-linejoin="bevel" transform="matrix(1.99923,0,0,1.99923,-0.00239907,287.889)"
font-family="Ubuntu" font-size="11" font-weight="400" font-style="normal" 
>
</g>

<g fill="#ffffff" fill-opacity="1" stroke="none" transform="matrix(1.99923,0,0,1.99923,-0.00239907,287.889)"
font-family="Ubuntu" font-size="11" font-weight="400" font-style="normal" 
>
<rect x="0.0012" y="-144" width="467.68" height="144"/>
</g>

<g fill="none" stroke="#000000" stroke-opacity="1" stroke-width="1" stroke-linecap="square" stroke-linejoin="bevel" transform="matrix(1.99923,0,0,1.99923,-0.00239907,287.889)"
font-family="Ubuntu" font-size="11" font-weight="400" font-style="normal" 
>
</g>

<g fill="none" stroke="#000000" stroke-opacity="1" stroke-width="1" stroke-linecap="square" stroke-linejoin="bevel" transform="matrix(1.99923,0,0,1.99923,-0.00239907,287.889)"
font-family="Ubuntu" font-size="11" font-weight="400" font-style="normal" 
>
</g>

<g fill="none" stroke="#000000" stroke-opacity="1" stroke-width="1" stroke-linecap="square" stroke-linejoin="bevel" transform="matrix(1.99923,0,0,1.99923,-0.00239907,287.889)"
font-family="Ubuntu" font-size="11" font-weight="400" font-style="normal" 
>
</g>

<g fill="none" stroke="#000000" stroke-opacity="1" stroke-width="1" stroke-linecap="square" stroke-linejoin="bevel" transform="matrix(1.99923,0,0,1.99923,-0.00239907,287.889)"
font-family="Ubuntu" font-size="11" font-weight="400" font-style="normal" 
>
</g>

<g fill="none" stroke="#000000" stroke-opacity="1" stroke-width="1" stroke-linecap="square" stroke-linejoin="round" transform="matrix(1.99923,0,0,1.99923,-0.00239907,287.889)"
font-family="Ubuntu" font-size="11" font-weight="400" font-style="normal" 
>
<ellipse cx="279.63" cy="-18" rx="76.1944" ry="17.5"/>
</g>

<g fill="none" stroke="#000000" stroke-opacity="1" stroke-width="1" stroke-linecap="square" stroke-linejoin="bevel" transform="matrix(1.99923,0,0,1.99923,-0.00239907,287.889)"
font-family="Ubuntu" font-size="11" font-weight="400" font-style="normal" 
>
</g>

<g fill="none" stroke="#000000" stroke-opacity="1" stroke-width="1" stroke-linecap="square" stroke-linejoin="bevel" transform="matrix(1.99923,0,0,1.99923,475.855,237.908)"
font-family="Ubuntu" font-size="11" font-weight="400" font-style="normal" 
>
</g>

<g fill="none" stroke="#000000" stroke-opacity="1" stroke-width="1" stroke-linecap="square" stroke-linejoin="bevel" transform="matrix(1.99923,0,0,1.99923,475.855,237.908)"
font-family="sans" font-size="11" font-weight="100" font-style="normal" 
>
</g>

<g fill="#000000" fill-opacity="1" stroke="#000000" stroke-opacity="1" stroke-width="1" stroke-linecap="square" stroke-linejoin="round" transform="matrix(1.99923,0,0,1.99923,475.855,237.908)"
font-family="sans" font-size="11" font-weight="100" font-style="normal" 
>
<path vector-effect="none" fill-rule="nonzero" d="M2.79688,2.98438 L3.70313,2.98438 L0.90625,12.0156 L0,12.0156 L2.79688,2.98438 M4.78125,2.98438 L6.25,2.98438 L9.79688,9.6875 L9.79688,2.98438 L10.8594,2.98438 L10.8594,11 L9.39063,11 L5.82813,4.29688 L5.82813,11 L4.78125,11 L4.78125,2.98438 M16.25,3.71875 C15.4688,3.71875 14.8464,4.01302 14.3828,4.60156 C13.9193,5.1901 13.6875,5.98958 13.6875,7 C13.6875,8.01042 13.9193,8.8099 14.3828,9.39844 C14.8464,9.98698 15.4688,10.2813 16.25,10.2813 C17.0417,10.2813 17.6667,9.98698 18.125,9.39844 C18.5833,8.8099 18.8125,8.01042 18.8125,7 C18.8125,5.98958 18.5833,5.1901 18.125,4.60156 C17.6667,4.01302 17.0417,3.71875 16.25,3.71875 M16.25,2.82813 C17.375,2.82813 18.276,3.20573 18.9531,3.96094 C19.6302,4.71615 19.9688,5.72917 19.9688,7 C19.9688,8.26042 19.6302,9.26823 18.9531,10.0234 C18.276,10.7786 17.375,11.1563 16.25,11.1563 C15.125,11.1563 14.2266,10.7813 13.5547,10.0313 C12.8828,9.28125 12.5469,8.27083 12.5469,7 C12.5469,5.72917 12.8828,4.71615 13.5547,3.96094 C14.2266,3.20573 15.125,2.82813 16.25,2.82813 M21.6563,2.98438 L23.125,2.98438 L26.6719,9.6875 L26.6719,2.98438 L27.7344,2.98438 L27.7344,11 L26.2656,11 L22.7031,4.29688 L22.7031,11 L21.6563,11 L21.6563,2.98438 M29.875,2.98438 L30.9688,2.98438 L30.9688,6.375 L34.5625,2.98438 L35.9531,2.98438 L31.9844,6.71875 L36.2344,11 L34.8125,11 L30.9688,7.14063 L30.9688,11 L29.875,11 L29.875,2.98438 M38.1719,3.875 L38.1719,10.1094 L39.4688,10.1094 C40.5833,10.1094 41.3958,9.85938 41.9063,9.35938 C42.4167,8.85938 42.6719,8.06771 42.6719,6.98438 C42.6719,5.91146 42.4167,5.125 41.9063,4.625 C41.3958,4.125 40.5833,3.875 39.4688,3.875 L38.1719,3.875 M37.0781,2.98438 L39.3125,2.98438 C40.8646,2.98438 42.0052,3.30729 42.7344,3.95313 C43.4635,4.59896 43.8281,5.60938 43.8281,6.98438 C43.8281,8.36979 43.4609,9.38542 42.7266,10.0313 C41.9922,10.6771 40.8542,11 39.3125,11 L37.0781,11 L37.0781,2.98438 M45.5469,2.98438 L46.6406,2.98438 L46.6406,10.0938 L50.5313,10.0938 L50.5313,11 L45.5469,11 L45.5469,2.98438 M56.2031,12.8281 L56.2031,13.5938 L50.4844,13.5938 L50.4844,12.8281 L56.2031,12.8281 M58.2656,3.875 L58.2656,10.1094 L59.5625,10.1094 C60.6771,10.1094 61.4896,9.85938 62,9.35938 C62.5104,8.85938 62.7656,8.06771 62.7656,6.98438 C62.7656,5.91146 62.5104,5.125 62,4.625 C61.4896,4.125 60.6771,3.875 59.5625,3.875 L58.2656,3.875 M57.1719,2.98438 L59.4063,2.98438 C60.9583,2.98438 62.099,3.30729 62.8281,3.95313 C63.5573,4.59896 63.9219,5.60938 63.9219,6.98438 C63.9219,8.36979 63.5547,9.38542 62.8203,10.0313 C62.0859,10.6771 60.9479,11 59.4063,11 L57.1719,11 L57.1719,2.98438 M65.6406,2.98438 L66.7344,2.98438 L66.7344,6.375 L70.3281,2.98438 L71.7188,2.98438 L67.75,6.71875 L72,11 L70.5781,11 L66.7344,7.14063 L66.7344,11 L65.6406,11 L65.6406,2.98438 M72.8438,2.98438 L73.9375,2.98438 L73.9375,11 L72.8438,11 L72.8438,2.98438 M76.0781,2.98438 L77.5469,2.98438 L81.0938,9.6875 L81.0938,2.98438 L82.1563,2.98438 L82.1563,11 L80.6875,11 L77.125,4.29688 L77.125,11 L76.0781,11 L76.0781,2.98438"/>
</g>

<g fill="none" stroke="#000000" stroke-opacity="1" stroke-width="1" stroke-linecap="square" stroke-linejoin="bevel" transform="matrix(1.99923,0,0,1.99923,475.855,237.908)"
font-family="sans" font-size="11" font-weight="100" font-style="normal" 
>
</g>

<g fill="none" stroke="#000000" stroke-opacity="1" stroke-width="1" stroke-linecap="square" stroke-linejoin="bevel" transform="matrix(1.99923,0,0,1.99923,475.855,237.908)"
font-family="Ubuntu" font-size="11" font-weight="400" font-style="normal" 
>
</g>

<g fill="none" stroke="#000000" stroke-opacity="1" stroke-width="1" stroke-linecap="square" stroke-linejoin="bevel" transform="matrix(1.99923,0,0,1.99923,-0.00239907,287.889)"
font-family="Ubuntu" font-size="11" font-weight="400" font-style="normal" 
>
</g>

<g fill="none" stroke="#000000" stroke-opacity="1" stroke-width="1" stroke-linecap="square" stroke-linejoin="bevel" transform="matrix(1.99923,0,0,1.99923,-0.00239907,287.889)"
font-family="Ubuntu" font-size="11" font-weight="400" font-style="normal" 
>
</g>

<g fill="none" stroke="#000000" stroke-opacity="1" stroke-width="1" stroke-linecap="square" stroke-linejoin="bevel" transform="matrix(1.99923,0,0,1.99923,-0.00239907,287.889)"
font-family="Ubuntu" font-size="11" font-weight="400" font-style="normal" 
>
</g>

<g fill="none" stroke="#000000" stroke-opacity="1" stroke-width="1" stroke-linecap="square" stroke-linejoin="round" transform="matrix(1.99923,0,0,1.99923,-0.00239907,287.889)"
font-family="Ubuntu" font-size="11" font-weight="400" font-style="normal" 
>
<rect x="95.0896" y="-89.5" width="81.0008" height="35"/>
</g>

<g fill="none" stroke="#000000" stroke-opacity="1" stroke-width="1" stroke-linecap="square" stroke-linejoin="bevel" transform="matrix(1.99923,0,0,1.99923,-0.00239907,287.889)"
font-family="Ubuntu" font-size="11" font-weight="400" font-style="normal" 
>
</g>

<g fill="none" stroke="#000000" stroke-opacity="1" stroke-width="1" stroke-linecap="square" stroke-linejoin="bevel" transform="matrix(1.99923,0,0,1.99923,204.239,129.95)"
font-family="Ubuntu" font-size="11" font-weight="400" font-style="normal" 
>
</g>

<g fill="none" stroke="#000000" stroke-opacity="1" stroke-width="1" stroke-linecap="square" stroke-linejoin="bevel" transform="matrix(1.99923,0,0,1.99923,204.239,129.95)"
font-family="sans" font-size="11" font-weight="100" font-style="normal" 
>
</g>

<g fill="#000000" fill-opacity="1" stroke="#000000" stroke-opacity="1" stroke-width="1" stroke-linecap="square" stroke-linejoin="round" transform="matrix(1.99923,0,0,1.99923,204.239,129.95)"
font-family="sans" font-size="11" font-weight="100" font-style="normal" 
>
<path vector-effect="none" fill-rule="nonzero" d="M2.79688,2.98438 L3.70313,2.98438 L0.90625,12.0156 L0,12.0156 L2.79688,2.98438 M4.73438,4.98438 L5.73438,4.98438 L5.73438,11.1094 C5.73438,11.8698 5.58854,12.4219 5.29688,12.7656 C5.00521,13.1094 4.53125,13.2813 3.875,13.2813 L3.5,13.2813 L3.5,12.4531 L3.76563,12.4531 C4.14063,12.4531 4.39583,12.3646 4.53125,12.1875 C4.66667,12.0104 4.73438,11.651 4.73438,11.1094 L4.73438,4.98438 M4.73438,2.64063 L5.73438,2.64063 L5.73438,3.89063 L4.73438,3.89063 L4.73438,2.64063 M10.125,5.67188 C9.59375,5.67188 9.17448,5.88021 8.86719,6.29688 C8.5599,6.71354 8.40625,7.28125 8.40625,8 C8.40625,8.71875 8.55729,9.28385 8.85938,9.69531 C9.16146,10.1068 9.58333,10.3125 10.125,10.3125 C10.6458,10.3125 11.0599,10.1068 11.3672,9.69531 C11.6745,9.28385 11.8281,8.71875 11.8281,8 C11.8281,7.28125 11.6745,6.71354 11.3672,6.29688 C11.0599,5.88021 10.6458,5.67188 10.125,5.67188 M10.125,4.84375 C10.9792,4.84375 11.651,5.1224 12.1406,5.67969 C12.6302,6.23698 12.875,7.01042 12.875,8 C12.875,8.97917 12.6302,9.75 12.1406,10.3125 C11.651,10.875 10.9792,11.1563 10.125,11.1563 C9.26042,11.1563 8.58333,10.875 8.09375,10.3125 C7.60417,9.75 7.35938,8.97917 7.35938,8 C7.35938,7.01042 7.60417,6.23698 8.09375,5.67969 C8.58333,5.1224 9.26042,4.84375 10.125,4.84375 M14.5,4.98438 L15.5,4.98438 L15.5,11 L14.5,11 L14.5,4.98438 M14.5,2.64063 L15.5,2.64063 L15.5,3.89063 L14.5,3.89063 L14.5,2.64063 M22.5469,7.375 L22.5469,11 L21.5625,11 L21.5625,7.40625 C21.5625,6.83333 21.4531,6.40625 21.2344,6.125 C21.0156,5.84375 20.6823,5.70313 20.2344,5.70313 C19.7031,5.70313 19.2839,5.8724 18.9766,6.21094 C18.6693,6.54948 18.5156,7.01042 18.5156,7.59375 L18.5156,11 L17.5156,11 L17.5156,4.98438 L18.5156,4.98438 L18.5156,5.92188 C18.7448,5.55729 19.0208,5.28646 19.3438,5.10938 C19.6667,4.93229 20.0365,4.84375 20.4531,4.84375 C21.1406,4.84375 21.6615,5.05729 22.0156,5.48438 C22.3698,5.91146 22.5469,6.54167 22.5469,7.375 M25.5,3.28125 L25.5,4.98438 L27.5313,4.98438 L27.5313,5.75 L25.5,5.75 L25.5,9.01563 C25.5,9.50521 25.5677,9.82031 25.7031,9.96094 C25.8385,10.1016 26.1094,10.1719 26.5156,10.1719 L27.5313,10.1719 L27.5313,11 L26.5156,11 C25.7552,11 25.2292,10.8568 24.9375,10.5703 C24.6458,10.2839 24.5,9.76563 24.5,9.01563 L24.5,5.75 L23.7813,5.75 L23.7813,4.98438 L24.5,4.98438 L24.5,3.28125 L25.5,3.28125 M33.4063,12.8281 L33.4063,13.5938 L27.6875,13.5938 L27.6875,12.8281 L33.4063,12.8281 M38.1719,5.15625 L38.1719,6.09375 C37.8906,5.94792 37.599,5.84115 37.2969,5.77344 C36.9948,5.70573 36.6823,5.67188 36.3594,5.67188 C35.8698,5.67188 35.5026,5.7474 35.2578,5.89844 C35.013,6.04948 34.8906,6.27083 34.8906,6.5625 C34.8906,6.79167 34.9792,6.97135 35.1563,7.10156 C35.3333,7.23177 35.6875,7.35938 36.2188,7.48438 L36.5469,7.5625 C37.2552,7.70833 37.7552,7.91927 38.0469,8.19531 C38.3385,8.47135 38.4844,8.85417 38.4844,9.34375 C38.4844,9.89583 38.2656,10.3359 37.8281,10.6641 C37.3906,10.9922 36.7813,11.1563 36,11.1563 C35.6771,11.1563 35.3411,11.125 34.9922,11.0625 C34.6432,11 34.276,10.9063 33.8906,10.7813 L33.8906,9.76563 C34.2552,9.95313 34.6146,10.0938 34.9688,10.1875 C35.3229,10.2813 35.6771,10.3281 36.0313,10.3281 C36.4896,10.3281 36.8438,10.2474 37.0938,10.0859 C37.3438,9.92448 37.4688,9.70313 37.4688,9.42188 C37.4688,9.15104 37.3802,8.94271 37.2031,8.79688 C37.026,8.65104 36.6302,8.51563 36.0156,8.39063 L35.6719,8.29688 C35.0573,8.17188 34.6146,7.97656 34.3438,7.71094 C34.0729,7.44531 33.9375,7.07813 33.9375,6.60938 C33.9375,6.04688 34.138,5.61198 34.5391,5.30469 C34.9401,4.9974 35.5104,4.84375 36.25,4.84375 C36.6146,4.84375 36.9583,4.86979 37.2813,4.92188 C37.6042,4.97396 37.901,5.05208 38.1719,5.15625 M41.0313,3.28125 L41.0313,4.98438 L43.0625,4.98438 L43.0625,5.75 L41.0313,5.75 L41.0313,9.01563 C41.0313,9.50521 41.099,9.82031 41.2344,9.96094 C41.3698,10.1016 41.6406,10.1719 42.0469,10.1719 L43.0625,10.1719 L43.0625,11 L42.0469,11 C41.2865,11 40.7604,10.8568 40.4688,10.5703 C40.1771,10.2839 40.0313,9.76563 40.0313,9.01563 L40.0313,5.75 L39.3125,5.75 L39.3125,4.98438 L40.0313,4.98438 L40.0313,3.28125 L41.0313,3.28125 M47.0938,7.96875 C46.3021,7.96875 45.7526,8.0625 45.4453,8.25 C45.138,8.4375 44.9844,8.75 44.9844,9.1875 C44.9844,9.53125 45.099,9.80729 45.3281,10.0156 C45.5573,10.224 45.8698,10.3281 46.2656,10.3281 C46.8177,10.3281 47.2578,10.1328 47.5859,9.74219 C47.9141,9.35156 48.0781,8.83854 48.0781,8.20313 L48.0781,7.96875 L47.0938,7.96875 M49.0625,7.5625 L49.0625,11 L48.0781,11 L48.0781,10.0938 C47.8594,10.4583 47.5807,10.7266 47.2422,10.8984 C46.9036,11.0703 46.4896,11.1563 46,11.1563 C45.3854,11.1563 44.8958,10.9844 44.5313,10.6406 C44.1667,10.2969 43.9844,9.83333 43.9844,9.25 C43.9844,8.57292 44.2109,8.0625 44.6641,7.71875 C45.1172,7.375 45.7969,7.20313 46.7031,7.20313 L48.0781,7.20313 L48.0781,7.10938 C48.0781,6.65104 47.9297,6.29688 47.6328,6.04688 C47.3359,5.79688 46.9167,5.67188 46.375,5.67188 C46.0313,5.67188 45.6953,5.71354 45.3672,5.79688 C45.0391,5.88021 44.724,6.00521 44.4219,6.17188 L44.4219,5.26563 C44.7865,5.11979 45.1406,5.01302 45.4844,4.94531 C45.8281,4.8776 46.1563,4.84375 46.4688,4.84375 C47.3438,4.84375 47.9948,5.06771 48.4219,5.51563 C48.849,5.96354 49.0625,6.64583 49.0625,7.5625 M52.0781,3.28125 L52.0781,4.98438 L54.1094,4.98438 L54.1094,5.75 L52.0781,5.75 L52.0781,9.01563 C52.0781,9.50521 52.1458,9.82031 52.2813,9.96094 C52.4167,10.1016 52.6875,10.1719 53.0938,10.1719 L54.1094,10.1719 L54.1094,11 L53.0938,11 C52.3333,11 51.8073,10.8568 51.5156,10.5703 C51.224,10.2839 51.0781,9.76563 51.0781,9.01563 L51.0781,5.75 L50.3594,5.75 L50.3594,4.98438 L51.0781,4.98438 L51.0781,3.28125 L52.0781,3.28125 M60.5625,7.75 L60.5625,8.23438 L56.0156,8.23438 C56.0573,8.91146 56.2604,9.42708 56.625,9.78125 C56.9896,10.1354 57.5,10.3125 58.1563,10.3125 C58.5417,10.3125 58.9115,10.2656 59.2656,10.1719 C59.6198,10.0781 59.974,9.94271 60.3281,9.76563 L60.3281,10.6875 C59.974,10.8438 59.6094,10.9609 59.2344,11.0391 C58.8594,11.1172 58.4844,11.1563 58.1094,11.1563 C57.1406,11.1563 56.3776,10.8776 55.8203,10.3203 C55.263,9.76302 54.9844,9.00521 54.9844,8.04688 C54.9844,7.06771 55.25,6.28906 55.7813,5.71094 C56.3125,5.13281 57.0313,4.84375 57.9375,4.84375 C58.7396,4.84375 59.3776,5.10417 59.8516,5.625 C60.3255,6.14583 60.5625,6.85417 60.5625,7.75 M59.5625,7.45313 C59.5625,6.91146 59.4141,6.47917 59.1172,6.15625 C58.8203,5.83333 58.4271,5.67188 57.9375,5.67188 C57.3854,5.67188 56.9453,5.82813 56.6172,6.14063 C56.2891,6.45313 56.099,6.89063 56.0469,7.45313 L59.5625,7.45313 M66.0156,5.15625 L66.0156,6.09375 C65.7344,5.94792 65.4427,5.84115 65.1406,5.77344 C64.8385,5.70573 64.526,5.67188 64.2031,5.67188 C63.7135,5.67188 63.3464,5.7474 63.1016,5.89844 C62.8568,6.04948 62.7344,6.27083 62.7344,6.5625 C62.7344,6.79167 62.8229,6.97135 63,7.10156 C63.1771,7.23177 63.5313,7.35938 64.0625,7.48438 L64.3906,7.5625 C65.099,7.70833 65.599,7.91927 65.8906,8.19531 C66.1823,8.47135 66.3281,8.85417 66.3281,9.34375 C66.3281,9.89583 66.1094,10.3359 65.6719,10.6641 C65.2344,10.9922 64.625,11.1563 63.8438,11.1563 C63.5208,11.1563 63.1849,11.125 62.8359,11.0625 C62.487,11 62.1198,10.9063 61.7344,10.7813 L61.7344,9.76563 C62.099,9.95313 62.4583,10.0938 62.8125,10.1875 C63.1667,10.2813 63.5208,10.3281 63.875,10.3281 C64.3333,10.3281 64.6875,10.2474 64.9375,10.0859 C65.1875,9.92448 65.3125,9.70313 65.3125,9.42188 C65.3125,9.15104 65.224,8.94271 65.0469,8.79688 C64.8698,8.65104 64.474,8.51563 63.8594,8.39063 L63.5156,8.29688 C62.901,8.17188 62.4583,7.97656 62.1875,7.71094 C61.9167,7.44531 61.7813,7.07813 61.7813,6.60938 C61.7813,6.04688 61.9818,5.61198 62.3828,5.30469 C62.7839,4.9974 63.3542,4.84375 64.0938,4.84375 C64.4583,4.84375 64.8021,4.86979 65.125,4.92188 C65.4479,4.97396 65.7448,5.05208 66.0156,5.15625 "/>
</g>

<g fill="none" stroke="#000000" stroke-opacity="1" stroke-width="1" stroke-linecap="square" stroke-linejoin="bevel" transform="matrix(1.99923,0,0,1.99923,204.239,129.95)"
font-family="sans" font-size="11" font-weight="100" font-style="normal" 
>
</g>

<g fill="none" stroke="#000000" stroke-opacity="1" stroke-width="1" stroke-linecap="square" stroke-linejoin="bevel" transform="matrix(1.99923,0,0,1.99923,204.239,129.95)"
font-family="Ubuntu" font-size="11" font-weight="400" font-style="normal" 
>
</g>

<g fill="none" stroke="#000000" stroke-opacity="1" stroke-width="1" stroke-linecap="square" stroke-linejoin="bevel" transform="matrix(1.99923,0,0,1.99923,-0.00239907,287.889)"
font-family="Ubuntu" font-size="11" font-weight="400" font-style="normal" 
>
</g>

<g fill="none" stroke="#000000" stroke-opacity="1" stroke-width="1" stroke-linecap="square" stroke-linejoin="bevel" transform="matrix(1.99923,0,0,1.99923,-0.00239907,287.889)"
font-family="Ubuntu" font-size="11" font-weight="400" font-style="normal" 
>
</g>

<g fill="none" stroke="#000000" stroke-opacity="1" stroke-width="1" stroke-linecap="square" stroke-linejoin="bevel" transform="matrix(1.99923,0,0,1.99923,-0.00239907,287.889)"
font-family="Ubuntu" font-size="11" font-weight="400" font-style="normal" 
>
</g>

<g fill="none" stroke="#000000" stroke-opacity="1" stroke-width="1" stroke-linecap="square" stroke-linejoin="round" transform="matrix(1.99923,0,0,1.99923,-0.00239907,287.889)"
font-family="Ubuntu" font-size="11" font-weight="400" font-style="normal" 
>
<ellipse cx="279.63" cy="-72" rx="57.3448" ry="17.5"/>
</g>

<g fill="none" stroke="#000000" stroke-opacity="1" stroke-width="1" stroke-linecap="square" stroke-linejoin="bevel" transform="matrix(1.99923,0,0,1.99923,-0.00239907,287.889)"
font-family="Ubuntu" font-size="11" font-weight="400" font-style="normal" 
>
</g>

<g fill="none" stroke="#000000" stroke-opacity="1" stroke-width="1" stroke-linecap="square" stroke-linejoin="bevel" transform="matrix(1.99923,0,0,1.99923,500.939,129.95)"
font-family="Ubuntu" font-size="11" font-weight="400" font-style="normal" 
>
</g>

<g fill="none" stroke="#000000" stroke-opacity="1" stroke-width="1" stroke-linecap="square" stroke-linejoin="bevel" transform="matrix(1.99923,0,0,1.99923,500.939,129.95)"
font-family="sans" font-size="11" font-weight="100" font-style="normal" 
>
</g>

<g fill="#000000" fill-opacity="1" stroke="#000000" stroke-opacity="1" stroke-width="1" stroke-linecap="square" stroke-linejoin="round" transform="matrix(1.99923,0,0,1.99923,500.939,129.95)"
font-family="sans" font-size="11" font-weight="100" font-style="normal" 
>
<path vector-effect="none" fill-rule="nonzero" d="M2.79688,2.98438 L3.70313,2.98438 L0.90625,12.0156 L0,12.0156 L2.79688,2.98438 M4.78125,2.98438 L5.875,2.98438 L5.875,6.375 L9.46875,2.98438 L10.8594,2.98438 L6.89063,6.71875 L11.1406,11 L9.71875,11 L5.875,7.14063 L5.875,11 L4.78125,11 L4.78125,2.98438 M13.0781,3.875 L13.0781,10.1094 L14.375,10.1094 C15.4896,10.1094 16.3021,9.85938 16.8125,9.35938 C17.3229,8.85938 17.5781,8.06771 17.5781,6.98438 C17.5781,5.91146 17.3229,5.125 16.8125,4.625 C16.3021,4.125 15.4896,3.875 14.375,3.875 L13.0781,3.875 M11.9844,2.98438 L14.2188,2.98438 C15.7708,2.98438 16.9115,3.30729 17.6406,3.95313 C18.3698,4.59896 18.7344,5.60938 18.7344,6.98438 C18.7344,8.36979 18.3672,9.38542 17.6328,10.0313 C16.8984,10.6771 15.7604,11 14.2188,11 L11.9844,11 L11.9844,2.98438 M20.4531,2.98438 L21.5469,2.98438 L21.5469,10.0938 L25.4375,10.0938 L25.4375,11 L20.4531,11 L20.4531,2.98438 M31.1094,12.8281 L31.1094,13.5938 L25.3906,13.5938 L25.3906,12.8281 L31.1094,12.8281 M33.1719,3.875 L33.1719,10.1094 L34.4688,10.1094 C35.5833,10.1094 36.3958,9.85938 36.9063,9.35938 C37.4167,8.85938 37.6719,8.06771 37.6719,6.98438 C37.6719,5.91146 37.4167,5.125 36.9063,4.625 C36.3958,4.125 35.5833,3.875 34.4688,3.875 L33.1719,3.875 M32.0781,2.98438 L34.3125,2.98438 C35.8646,2.98438 37.0052,3.30729 37.7344,3.95313 C38.4635,4.59896 38.8281,5.60938 38.8281,6.98438 C38.8281,8.36979 38.4609,9.38542 37.7266,10.0313 C36.9922,10.6771 35.8542,11 34.3125,11 L32.0781,11 L32.0781,2.98438 M40.5469,2.98438 L41.6406,2.98438 L41.6406,6.375 L45.2344,2.98438 L46.625,2.98438 L42.6563,6.71875 L46.9063,11 L45.4844,11 L41.6406,7.14063 L41.6406,11 L40.5469,11 L40.5469,2.98438 M47.75,2.98438 L48.8438,2.98438 L48.8438,11 L47.75,11 L47.75,2.98438 M50.9844,2.98438 L52.4531,2.98438 L56,9.6875 L56,2.98438 L57.0625,2.98438 L57.0625,11 L55.5938,11 L52.0313,4.29688 L52.0313,11 L50.9844,11 L50.9844,2.98438"/>
</g>

<g fill="none" stroke="#000000" stroke-opacity="1" stroke-width="1" stroke-linecap="square" stroke-linejoin="bevel" transform="matrix(1.99923,0,0,1.99923,500.939,129.95)"
font-family="sans" font-size="11" font-weight="100" font-style="normal" 
>
</g>

<g fill="none" stroke="#000000" stroke-opacity="1" stroke-width="1" stroke-linecap="square" stroke-linejoin="bevel" transform="matrix(1.99923,0,0,1.99923,500.939,129.95)"
font-family="Ubuntu" font-size="11" font-weight="400" font-style="normal" 
>
</g>

<g fill="none" stroke="#000000" stroke-opacity="1" stroke-width="1" stroke-linecap="square" stroke-linejoin="bevel" transform="matrix(1.99923,0,0,1.99923,-0.00239907,287.889)"
font-family="Ubuntu" font-size="11" font-weight="400" font-style="normal" 
>
</g>

<g fill="none" stroke="#000000" stroke-opacity="1" stroke-width="1" stroke-linecap="square" stroke-linejoin="bevel" transform="matrix(1.99923,0,0,1.99923,-0.00239907,287.889)"
font-family="Ubuntu" font-size="11" font-weight="400" font-style="normal" 
>
</g>

<g fill="none" stroke="#000000" stroke-opacity="1" stroke-width="1" stroke-linecap="square" stroke-linejoin="bevel" transform="matrix(1.99923,0,0,1.99923,-0.00239907,287.889)"
font-family="Ubuntu" font-size="11" font-weight="400" font-style="normal" 
>
</g>

<g fill="none" stroke="#000000" stroke-opacity="1" stroke-width="1" stroke-linecap="square" stroke-linejoin="round" transform="matrix(1.99923,0,0,1.99923,-0.00239907,287.889)"
font-family="Ubuntu" font-size="11" font-weight="400" font-style="normal" 
>
<rect x="391.68" y="-89.5" width="66.9997" height="35"/>
</g>

<g fill="none" stroke="#000000" stroke-opacity="1" stroke-width="1" stroke-linecap="square" stroke-linejoin="bevel" transform="matrix(1.99923,0,0,1.99923,-0.00239907,287.889)"
font-family="Ubuntu" font-size="11" font-weight="400" font-style="normal" 
>
</g>

<g fill="none" stroke="#000000" stroke-opacity="1" stroke-width="1" stroke-linecap="square" stroke-linejoin="bevel" transform="matrix(1.99923,0,0,1.99923,802.626,129.95)"
font-family="Ubuntu" font-size="11" font-weight="400" font-style="normal" 
>
</g>

<g fill="none" stroke="#000000" stroke-opacity="1" stroke-width="1" stroke-linecap="square" stroke-linejoin="bevel" transform="matrix(1.99923,0,0,1.99923,802.626,129.95)"
font-family="sans" font-size="11" font-weight="100" font-style="normal" 
>
</g>

<g fill="#000000" fill-opacity="1" stroke="#000000" stroke-opacity="1" stroke-width="1" stroke-linecap="square" stroke-linejoin="round" transform="matrix(1.99923,0,0,1.99923,802.626,129.95)"
font-family="sans" font-size="11" font-weight="100" font-style="normal" 
>
<path vector-effect="none" fill-rule="nonzero" d="M2.79688,2.98438 L3.70313,2.98438 L0.90625,12.0156 L0,12.0156 L2.79688,2.98438 M4.78125,2.98438 L5.875,2.98438 L5.875,6.375 L9.46875,2.98438 L10.8594,2.98438 L6.89063,6.71875 L11.1406,11 L9.71875,11 L5.875,7.14063 L5.875,11 L4.78125,11 L4.78125,2.98438 M15.9063,5.89063 L15.9063,2.64063 L16.8906,2.64063 L16.8906,11 L15.9063,11 L15.9063,10.0938 C15.6979,10.4583 15.4349,10.7266 15.1172,10.8984 C14.7995,11.0703 14.4167,11.1563 13.9688,11.1563 C13.25,11.1563 12.6615,10.8672 12.2031,10.2891 C11.7448,9.71094 11.5156,8.94792 11.5156,8 C11.5156,7.05208 11.7448,6.28906 12.2031,5.71094 C12.6615,5.13281 13.25,4.84375 13.9688,4.84375 C14.4167,4.84375 14.7995,4.92969 15.1172,5.10156 C15.4349,5.27344 15.6979,5.53646 15.9063,5.89063 M12.5313,8 C12.5313,8.72917 12.6823,9.29948 12.9844,9.71094 C13.2865,10.1224 13.6979,10.3281 14.2188,10.3281 C14.7396,10.3281 15.151,10.1224 15.4531,9.71094 C15.7552,9.29948 15.9063,8.72917 15.9063,8 C15.9063,7.27083 15.7552,6.70052 15.4531,6.28906 C15.151,5.8776 14.7396,5.67188 14.2188,5.67188 C13.6979,5.67188 13.2865,5.8776 12.9844,6.28906 C12.6823,6.70052 12.5313,7.27083 12.5313,8 M18.9063,2.64063 L19.9063,2.64063 L19.9063,11 L18.9063,11 L18.9063,2.64063 M24.6875,4.04688 L23.2031,8.04688 L26.1563,8.04688 L24.6875,4.04688 M24.0625,2.98438 L25.2969,2.98438 L28.3594,11 L27.2344,11 L26.5,8.9375 L22.875,8.9375 L22.1563,11 L21.0156,11 L24.0625,2.98438 M34.4688,4.98438 L32.2969,7.90625 L34.5938,11 L33.4219,11 L31.6719,8.64063 L29.9219,11 L28.75,11 L31.0938,7.85938 L28.9531,4.98438 L30.125,4.98438 L31.7188,7.125 L33.3125,4.98438 L34.4688,4.98438 M41.125,7.75 L41.125,8.23438 L36.5781,8.23438 C36.6198,8.91146 36.8229,9.42708 37.1875,9.78125 C37.5521,10.1354 38.0625,10.3125 38.7188,10.3125 C39.1042,10.3125 39.474,10.2656 39.8281,10.1719 C40.1823,10.0781 40.5365,9.94271 40.8906,9.76563 L40.8906,10.6875 C40.5365,10.8438 40.1719,10.9609 39.7969,11.0391 C39.4219,11.1172 39.0469,11.1563 38.6719,11.1563 C37.7031,11.1563 36.9401,10.8776 36.3828,10.3203 C35.8255,9.76302 35.5469,9.00521 35.5469,8.04688 C35.5469,7.06771 35.8125,6.28906 36.3438,5.71094 C36.875,5.13281 37.5938,4.84375 38.5,4.84375 C39.3021,4.84375 39.9401,5.10417 40.4141,5.625 C40.888,6.14583 41.125,6.85417 41.125,7.75 M40.125,7.45313 C40.125,6.91146 39.9766,6.47917 39.6797,6.15625 C39.3828,5.83333 38.9896,5.67188 38.5,5.67188 C37.9479,5.67188 37.5078,5.82813 37.1797,6.14063 C36.8516,6.45313 36.6615,6.89063 36.6094,7.45313 L40.125,7.45313 M46.5781,5.15625 L46.5781,6.09375 C46.2969,5.94792 46.0052,5.84115 45.7031,5.77344 C45.401,5.70573 45.0885,5.67188 44.7656,5.67188 C44.276,5.67188 43.9089,5.7474 43.6641,5.89844 C43.4193,6.04948 43.2969,6.27083 43.2969,6.5625 C43.2969,6.79167 43.3854,6.97135 43.5625,7.10156 C43.7396,7.23177 44.0938,7.35938 44.625,7.48438 L44.9531,7.5625 C45.6615,7.70833 46.1615,7.91927 46.4531,8.19531 C46.7448,8.47135 46.8906,8.85417 46.8906,9.34375 C46.8906,9.89583 46.6719,10.3359 46.2344,10.6641 C45.7969,10.9922 45.1875,11.1563 44.4063,11.1563 C44.0833,11.1563 43.7474,11.125 43.3984,11.0625 C43.0495,11 42.6823,10.9063 42.2969,10.7813 L42.2969,9.76563 C42.6615,9.95313 43.0208,10.0938 43.375,10.1875 C43.7292,10.2813 44.0833,10.3281 44.4375,10.3281 C44.8958,10.3281 45.25,10.2474 45.5,10.0859 C45.75,9.92448 45.875,9.70313 45.875,9.42188 C45.875,9.15104 45.7865,8.94271 45.6094,8.79688 C45.4323,8.65104 45.0365,8.51563 44.4219,8.39063 L44.0781,8.29688 C43.4635,8.17188 43.0208,7.97656 42.75,7.71094 C42.4792,7.44531 42.3438,7.07813 42.3438,6.60938 C42.3438,6.04688 42.5443,5.61198 42.9453,5.30469 C43.3464,4.9974 43.9167,4.84375 44.6563,4.84375 C45.0208,4.84375 45.3646,4.86979 45.6875,4.92188 C46.0104,4.97396 46.3073,5.05208 46.5781,5.15625 "/>
</g>

<g fill="none" stroke="#000000" stroke-opacity="1" stroke-width="1" stroke-linecap="square" stroke-linejoin="bevel" transform="matrix(1.99923,0,0,1.99923,802.626,129.95)"
font-family="sans" font-size="11" font-weight="100" font-style="normal" 
>
</g>

<g fill="none" stroke="#000000" stroke-opacity="1" stroke-width="1" stroke-linecap="square" stroke-linejoin="bevel" transform="matrix(1.99923,0,0,1.99923,802.626,129.95)"
font-family="Ubuntu" font-size="11" font-weight="400" font-style="normal" 
>
</g>

<g fill="none" stroke="#000000" stroke-opacity="1" stroke-width="1" stroke-linecap="square" stroke-linejoin="bevel" transform="matrix(1.99923,0,0,1.99923,-0.00239907,287.889)"
font-family="Ubuntu" font-size="11" font-weight="400" font-style="normal" 
>
</g>

<g fill="none" stroke="#000000" stroke-opacity="1" stroke-width="1" stroke-linecap="square" stroke-linejoin="bevel" transform="matrix(1.99923,0,0,1.99923,-0.00239907,287.889)"
font-family="Ubuntu" font-size="11" font-weight="400" font-style="normal" 
>
</g>

<g fill="none" stroke="#000000" stroke-opacity="1" stroke-width="1" stroke-linecap="square" stroke-linejoin="bevel" transform="matrix(1.99923,0,0,1.99923,-0.00239907,287.889)"
font-family="Ubuntu" font-size="11" font-weight="400" font-style="normal" 
>
</g>

<g fill="none" stroke="#000000" stroke-opacity="1" stroke-width="1" stroke-linecap="square" stroke-linejoin="round" transform="matrix(1.99923,0,0,1.99923,-0.00239907,287.889)"
font-family="Ubuntu" font-size="11" font-weight="400" font-style="normal" 
>
<ellipse cx="279.63" cy="-126" rx="88.5424" ry="17.5"/>
</g>

<g fill="none" stroke="#000000" stroke-opacity="1" stroke-width="1" stroke-linecap="square" stroke-linejoin="bevel" transform="matrix(1.99923,0,0,1.99923,-0.00239907,287.889)"
font-family="Ubuntu" font-size="11" font-weight="400" font-style="normal" 
>
</g>

<g fill="none" stroke="#000000" stroke-opacity="1" stroke-width="1" stroke-linecap="square" stroke-linejoin="bevel" transform="matrix(1.99923,0,0,1.99923,436.339,21.9915)"
font-family="Ubuntu" font-size="11" font-weight="400" font-style="normal" 
>
</g>

<g fill="none" stroke="#000000" stroke-opacity="1" stroke-width="1" stroke-linecap="square" stroke-linejoin="bevel" transform="matrix(1.99923,0,0,1.99923,436.339,21.9915)"
font-family="sans" font-size="11" font-weight="100" font-style="normal" 
>
</g>

<g fill="#000000" fill-opacity="1" stroke="#000000" stroke-opacity="1" stroke-width="1" stroke-linecap="square" stroke-linejoin="round" transform="matrix(1.99923,0,0,1.99923,436.339,21.9915)"
font-family="sans" font-size="11" font-weight="100" font-style="normal" 
>
<path vector-effect="none" fill-rule="nonzero" d="M2.79688,2.98438 L3.70313,2.98438 L0.90625,12.0156 L0,12.0156 L2.79688,2.98438 M8.21875,5.90625 C8.11458,5.84375 7.9974,5.79688 7.86719,5.76563 C7.73698,5.73438 7.59375,5.71875 7.4375,5.71875 C6.875,5.71875 6.44531,5.90104 6.14844,6.26563 C5.85156,6.63021 5.70313,7.15104 5.70313,7.82813 L5.70313,11 L4.70313,11 L4.70313,4.98438 L5.70313,4.98438 L5.70313,5.92188 C5.90104,5.55729 6.16667,5.28646 6.5,5.10938 C6.83333,4.93229 7.23958,4.84375 7.71875,4.84375 C7.79167,4.84375 7.86719,4.84635 7.94531,4.85156 C8.02344,4.85677 8.11458,4.86979 8.21875,4.89063 L8.21875,5.90625 M11.5938,5.67188 C11.0625,5.67188 10.6432,5.88021 10.3359,6.29688 C10.0286,6.71354 9.875,7.28125 9.875,8 C9.875,8.71875 10.026,9.28385 10.3281,9.69531 C10.6302,10.1068 11.0521,10.3125 11.5938,10.3125 C12.1146,10.3125 12.5286,10.1068 12.8359,9.69531 C13.1432,9.28385 13.2969,8.71875 13.2969,8 C13.2969,7.28125 13.1432,6.71354 12.8359,6.29688 C12.5286,5.88021 12.1146,5.67188 11.5938,5.67188 M11.5938,4.84375 C12.4479,4.84375 13.1198,5.1224 13.6094,5.67969 C14.099,6.23698 14.3438,7.01042 14.3438,8 C14.3438,8.97917 14.099,9.75 13.6094,10.3125 C13.1198,10.875 12.4479,11.1563 11.5938,11.1563 C10.7292,11.1563 10.0521,10.875 9.5625,10.3125 C9.07292,9.75 8.82813,8.97917 8.82813,8 C8.82813,7.01042 9.07292,6.23698 9.5625,5.67969 C10.0521,5.1224 10.7292,4.84375 11.5938,4.84375 M20.2969,8 C20.2969,7.27083 20.1458,6.70052 19.8438,6.28906 C19.5417,5.8776 19.1302,5.67188 18.6094,5.67188 C18.0885,5.67188 17.6797,5.8776 17.3828,6.28906 C17.0859,6.70052 16.9375,7.27083 16.9375,8 C16.9375,8.72917 17.0859,9.29948 17.3828,9.71094 C17.6797,10.1224 18.0885,10.3281 18.6094,10.3281 C19.1302,10.3281 19.5417,10.1224 19.8438,9.71094 C20.1458,9.29948 20.2969,8.72917 20.2969,8 M16.9375,5.89063 C17.1354,5.53646 17.3932,5.27344 17.7109,5.10156 C18.0286,4.92969 18.4115,4.84375 18.8594,4.84375 C19.5885,4.84375 20.1797,5.13281 20.6328,5.71094 C21.0859,6.28906 21.3125,7.05208 21.3125,8 C21.3125,8.94792 21.0859,9.71094 20.6328,10.2891 C20.1797,10.8672 19.5885,11.1563 18.8594,11.1563 C18.4115,11.1563 18.0286,11.0703 17.7109,10.8984 C17.3932,10.7266 17.1354,10.4583 16.9375,10.0938 L16.9375,11 L15.9375,11 L15.9375,2.64063 L16.9375,2.64063 L16.9375,5.89063 M25.2813,5.67188 C24.75,5.67188 24.3307,5.88021 24.0234,6.29688 C23.7161,6.71354 23.5625,7.28125 23.5625,8 C23.5625,8.71875 23.7135,9.28385 24.0156,9.69531 C24.3177,10.1068 24.7396,10.3125 25.2813,10.3125 C25.8021,10.3125 26.2161,10.1068 26.5234,9.69531 C26.8307,9.28385 26.9844,8.71875 26.9844,8 C26.9844,7.28125 26.8307,6.71354 26.5234,6.29688 C26.2161,5.88021 25.8021,5.67188 25.2813,5.67188 M25.2813,4.84375 C26.1354,4.84375 26.8073,5.1224 27.2969,5.67969 C27.7865,6.23698 28.0313,7.01042 28.0313,8 C28.0313,8.97917 27.7865,9.75 27.2969,10.3125 C26.8073,10.875 26.1354,11.1563 25.2813,11.1563 C24.4167,11.1563 23.7396,10.875 23.25,10.3125 C22.7604,9.75 22.5156,8.97917 22.5156,8 C22.5156,7.01042 22.7604,6.23698 23.25,5.67969 C23.7396,5.1224 24.4167,4.84375 25.2813,4.84375 M30.6406,3.28125 L30.6406,4.98438 L32.6719,4.98438 L32.6719,5.75 L30.6406,5.75 L30.6406,9.01563 C30.6406,9.50521 30.7083,9.82031 30.8438,9.96094 C30.9792,10.1016 31.25,10.1719 31.6563,10.1719 L32.6719,10.1719 L32.6719,11 L31.6563,11 C30.8958,11 30.3698,10.8568 30.0781,10.5703 C29.7865,10.2839 29.6406,9.76563 29.6406,9.01563 L29.6406,5.75 L28.9219,5.75 L28.9219,4.98438 L29.6406,4.98438 L29.6406,3.28125 L30.6406,3.28125 M38.5469,12.8281 L38.5469,13.5938 L32.8281,13.5938 L32.8281,12.8281 L38.5469,12.8281 M43.3125,5.15625 L43.3125,6.09375 C43.0313,5.94792 42.7396,5.84115 42.4375,5.77344 C42.1354,5.70573 41.8229,5.67188 41.5,5.67188 C41.0104,5.67188 40.6432,5.7474 40.3984,5.89844 C40.1536,6.04948 40.0313,6.27083 40.0313,6.5625 C40.0313,6.79167 40.1198,6.97135 40.2969,7.10156 C40.474,7.23177 40.8281,7.35938 41.3594,7.48438 L41.6875,7.5625 C42.3958,7.70833 42.8958,7.91927 43.1875,8.19531 C43.4792,8.47135 43.625,8.85417 43.625,9.34375 C43.625,9.89583 43.4063,10.3359 42.9688,10.6641 C42.5313,10.9922 41.9219,11.1563 41.1406,11.1563 C40.8177,11.1563 40.4818,11.125 40.1328,11.0625 C39.7839,11 39.4167,10.9063 39.0313,10.7813 L39.0313,9.76563 C39.3958,9.95313 39.7552,10.0938 40.1094,10.1875 C40.4635,10.2813 40.8177,10.3281 41.1719,10.3281 C41.6302,10.3281 41.9844,10.2474 42.2344,10.0859 C42.4844,9.92448 42.6094,9.70313 42.6094,9.42188 C42.6094,9.15104 42.5208,8.94271 42.3438,8.79688 C42.1667,8.65104 41.7708,8.51563 41.1563,8.39063 L40.8125,8.29688 C40.1979,8.17188 39.7552,7.97656 39.4844,7.71094 C39.2135,7.44531 39.0781,7.07813 39.0781,6.60938 C39.0781,6.04688 39.2786,5.61198 39.6797,5.30469 C40.0807,4.9974 40.651,4.84375 41.3906,4.84375 C41.7552,4.84375 42.099,4.86979 42.4219,4.92188 C42.7448,4.97396 43.0417,5.05208 43.3125,5.15625 M46.1719,3.28125 L46.1719,4.98438 L48.2031,4.98438 L48.2031,5.75 L46.1719,5.75 L46.1719,9.01563 C46.1719,9.50521 46.2396,9.82031 46.375,9.96094 C46.5104,10.1016 46.7813,10.1719 47.1875,10.1719 L48.2031,10.1719 L48.2031,11 L47.1875,11 C46.4271,11 45.901,10.8568 45.6094,10.5703 C45.3177,10.2839 45.1719,9.76563 45.1719,9.01563 L45.1719,5.75 L44.4531,5.75 L44.4531,4.98438 L45.1719,4.98438 L45.1719,3.28125 L46.1719,3.28125 M52.2344,7.96875 C51.4427,7.96875 50.8932,8.0625 50.5859,8.25 C50.2786,8.4375 50.125,8.75 50.125,9.1875 C50.125,9.53125 50.2396,9.80729 50.4688,10.0156 C50.6979,10.224 51.0104,10.3281 51.4063,10.3281 C51.9583,10.3281 52.3984,10.1328 52.7266,9.74219 C53.0547,9.35156 53.2188,8.83854 53.2188,8.20313 L53.2188,7.96875 L52.2344,7.96875 M54.2031,7.5625 L54.2031,11 L53.2188,11 L53.2188,10.0938 C53,10.4583 52.7214,10.7266 52.3828,10.8984 C52.0443,11.0703 51.6302,11.1563 51.1406,11.1563 C50.526,11.1563 50.0365,10.9844 49.6719,10.6406 C49.3073,10.2969 49.125,9.83333 49.125,9.25 C49.125,8.57292 49.3516,8.0625 49.8047,7.71875 C50.2578,7.375 50.9375,7.20313 51.8438,7.20313 L53.2188,7.20313 L53.2188,7.10938 C53.2188,6.65104 53.0703,6.29688 52.7734,6.04688 C52.4766,5.79688 52.0573,5.67188 51.5156,5.67188 C51.1719,5.67188 50.8359,5.71354 50.5078,5.79688 C50.1797,5.88021 49.8646,6.00521 49.5625,6.17188 L49.5625,5.26563 C49.9271,5.11979 50.2813,5.01302 50.625,4.94531 C50.9688,4.8776 51.2969,4.84375 51.6094,4.84375 C52.4844,4.84375 53.1354,5.06771 53.5625,5.51563 C53.9896,5.96354 54.2031,6.64583 54.2031,7.5625 M57.2188,3.28125 L57.2188,4.98438 L59.25,4.98438 L59.25,5.75 L57.2188,5.75 L57.2188,9.01563 C57.2188,9.50521 57.2865,9.82031 57.4219,9.96094 C57.5573,10.1016 57.8281,10.1719 58.2344,10.1719 L59.25,10.1719 L59.25,11 L58.2344,11 C57.474,11 56.9479,10.8568 56.6563,10.5703 C56.3646,10.2839 56.2188,9.76563 56.2188,9.01563 L56.2188,5.75 L55.5,5.75 L55.5,4.98438 L56.2188,4.98438 L56.2188,3.28125 L57.2188,3.28125 M65.7031,7.75 L65.7031,8.23438 L61.1563,8.23438 C61.1979,8.91146 61.401,9.42708 61.7656,9.78125 C62.1302,10.1354 62.6406,10.3125 63.2969,10.3125 C63.6823,10.3125 64.0521,10.2656 64.4063,10.1719 C64.7604,10.0781 65.1146,9.94271 65.4688,9.76563 L65.4688,10.6875 C65.1146,10.8438 64.75,10.9609 64.375,11.0391 C64,11.1172 63.625,11.1563 63.25,11.1563 C62.2813,11.1563 61.5182,10.8776 60.9609,10.3203 C60.4036,9.76302 60.125,9.00521 60.125,8.04688 C60.125,7.06771 60.3906,6.28906 60.9219,5.71094 C61.4531,5.13281 62.1719,4.84375 63.0781,4.84375 C63.8802,4.84375 64.5182,5.10417 64.9922,5.625 C65.4661,6.14583 65.7031,6.85417 65.7031,7.75 M64.7031,7.45313 C64.7031,6.91146 64.5547,6.47917 64.2578,6.15625 C63.9609,5.83333 63.5677,5.67188 63.0781,5.67188 C62.526,5.67188 62.0859,5.82813 61.7578,6.14063 C61.4297,6.45313 61.2396,6.89063 61.1875,7.45313 L64.7031,7.45313 M71.8906,12.8281 L71.8906,13.5938 L66.1719,13.5938 L66.1719,12.8281 L71.8906,12.8281 M73.7813,10.0938 L73.7813,13.2813 L72.7813,13.2813 L72.7813,4.98438 L73.7813,4.98438 L73.7813,5.89063 C73.9792,5.53646 74.237,5.27344 74.5547,5.10156 C74.8724,4.92969 75.2552,4.84375 75.7031,4.84375 C76.4323,4.84375 77.0234,5.13281 77.4766,5.71094 C77.9297,6.28906 78.1563,7.05208 78.1563,8 C78.1563,8.94792 77.9297,9.71094 77.4766,10.2891 C77.0234,10.8672 76.4323,11.1563 75.7031,11.1563 C75.2552,11.1563 74.8724,11.0703 74.5547,10.8984 C74.237,10.7266 73.9792,10.4583 73.7813,10.0938 M77.1406,8 C77.1406,7.27083 76.9896,6.70052 76.6875,6.28906 C76.3854,5.8776 75.974,5.67188 75.4531,5.67188 C74.9323,5.67188 74.5234,5.8776 74.2266,6.28906 C73.9297,6.70052 73.7813,7.27083 73.7813,8 C73.7813,8.72917 73.9297,9.29948 74.2266,9.71094 C74.5234,10.1224 74.9323,10.3281 75.4531,10.3281 C75.974,10.3281 76.3854,10.1224 76.6875,9.71094 C76.9896,9.29948 77.1406,8.72917 77.1406,8 M79.6875,8.625 L79.6875,4.98438 L80.6719,4.98438 L80.6719,8.59375 C80.6719,9.15625 80.7839,9.58073 81.0078,9.86719 C81.2318,10.1536 81.5625,10.2969 82,10.2969 C82.5417,10.2969 82.9661,10.1276 83.2734,9.78906 C83.5807,9.45052 83.7344,8.98438 83.7344,8.39063 L83.7344,4.98438 L84.7188,4.98438 L84.7188,11 L83.7344,11 L83.7344,10.0781 C83.4948,10.4427 83.2161,10.7135 82.8984,10.8906 C82.5807,11.0677 82.2135,11.1563 81.7969,11.1563 C81.1094,11.1563 80.5859,10.9401 80.2266,10.5078 C79.8672,10.0755 79.6875,9.44792 79.6875,8.625 M91.0781,8 C91.0781,7.27083 90.9271,6.70052 90.625,6.28906 C90.3229,5.8776 89.9115,5.67188 89.3906,5.67188 C88.8698,5.67188 88.4609,5.8776 88.1641,6.28906 C87.8672,6.70052 87.7188,7.27083 87.7188,8 C87.7188,8.72917 87.8672,9.29948 88.1641,9.71094 C88.4609,10.1224 88.8698,10.3281 89.3906,10.3281 C89.9115,10.3281 90.3229,10.1224 90.625,9.71094 C90.9271,9.29948 91.0781,8.72917 91.0781,8 M87.7188,5.89063 C87.9167,5.53646 88.1745,5.27344 88.4922,5.10156 C88.8099,4.92969 89.1927,4.84375 89.6406,4.84375 C90.3698,4.84375 90.9609,5.13281 91.4141,5.71094 C91.8672,6.28906 92.0938,7.05208 92.0938,8 C92.0938,8.94792 91.8672,9.71094 91.4141,10.2891 C90.9609,10.8672 90.3698,11.1563 89.6406,11.1563 C89.1927,11.1563 88.8099,11.0703 88.4922,10.8984 C88.1745,10.7266 87.9167,10.4583 87.7188,10.0938 L87.7188,11 L86.7188,11 L86.7188,2.64063 L87.7188,2.64063 L87.7188,5.89063 M93.7188,2.64063 L94.7188,2.64063 L94.7188,11 L93.7188,11 L93.7188,2.64063 M96.7656,4.98438 L97.7656,4.98438 L97.7656,11 L96.7656,11 L96.7656,4.98438 M96.7656,2.64063 L97.7656,2.64063 L97.7656,3.89063 L96.7656,3.89063 L96.7656,2.64063 M103.656,5.15625 L103.656,6.09375 C103.375,5.94792 103.083,5.84115 102.781,5.77344 C102.479,5.70573 102.167,5.67188 101.844,5.67188 C101.354,5.67188 100.987,5.7474 100.742,5.89844 C100.497,6.04948 100.375,6.27083 100.375,6.5625 C100.375,6.79167 100.464,6.97135 100.641,7.10156 C100.818,7.23177 101.172,7.35938 101.703,7.48438 L102.031,7.5625 C102.74,7.70833 103.24,7.91927 103.531,8.19531 C103.823,8.47135 103.969,8.85417 103.969,9.34375 C103.969,9.89583 103.75,10.3359 103.313,10.6641 C102.875,10.9922 102.266,11.1563 101.484,11.1563 C101.161,11.1563 100.826,11.125 100.477,11.0625 C100.128,11 99.7604,10.9063 99.375,10.7813 L99.375,9.76563 C99.7396,9.95313 100.099,10.0938 100.453,10.1875 C100.807,10.2813 101.161,10.3281 101.516,10.3281 C101.974,10.3281 102.328,10.2474 102.578,10.0859 C102.828,9.92448 102.953,9.70313 102.953,9.42188 C102.953,9.15104 102.865,8.94271 102.688,8.79688 C102.51,8.65104 102.115,8.51563 101.5,8.39063 L101.156,8.29688 C100.542,8.17188 100.099,7.97656 99.8281,7.71094 C99.5573,7.44531 99.4219,7.07813 99.4219,6.60938 C99.4219,6.04688 99.6224,5.61198 100.023,5.30469 C100.424,4.9974 100.995,4.84375 101.734,4.84375 C102.099,4.84375 102.443,4.86979 102.766,4.92188 C103.089,4.97396 103.385,5.05208 103.656,5.15625 M110.531,7.375 L110.531,11 L109.547,11 L109.547,7.40625 C109.547,6.83333 109.438,6.40625 109.219,6.125 C109,5.84375 108.667,5.70313 108.219,5.70313 C107.688,5.70313 107.268,5.8724 106.961,6.21094 C106.654,6.54948 106.5,7.01042 106.5,7.59375 L106.5,11 L105.5,11 L105.5,2.64063 L106.5,2.64063 L106.5,5.92188 C106.729,5.55729 107.005,5.28646 107.328,5.10938 C107.651,4.93229 108.021,4.84375 108.438,4.84375 C109.125,4.84375 109.646,5.05729 110,5.48438 C110.354,5.91146 110.531,6.54167 110.531,7.375 M117.656,7.75 L117.656,8.23438 L113.109,8.23438 C113.151,8.91146 113.354,9.42708 113.719,9.78125 C114.083,10.1354 114.594,10.3125 115.25,10.3125 C115.635,10.3125 116.005,10.2656 116.359,10.1719 C116.714,10.0781 117.068,9.94271 117.422,9.76563 L117.422,10.6875 C117.068,10.8438 116.703,10.9609 116.328,11.0391 C115.953,11.1172 115.578,11.1563 115.203,11.1563 C114.234,11.1563 113.471,10.8776 112.914,10.3203 C112.357,9.76302 112.078,9.00521 112.078,8.04688 C112.078,7.06771 112.344,6.28906 112.875,5.71094 C113.406,5.13281 114.125,4.84375 115.031,4.84375 C115.833,4.84375 116.471,5.10417 116.945,5.625 C117.419,6.14583 117.656,6.85417 117.656,7.75 M116.656,7.45313 C116.656,6.91146 116.508,6.47917 116.211,6.15625 C115.914,5.83333 115.521,5.67188 115.031,5.67188 C114.479,5.67188 114.039,5.82813 113.711,6.14063 C113.383,6.45313 113.193,6.89063 113.141,7.45313 L116.656,7.45313 M122.75,5.90625 C122.646,5.84375 122.529,5.79688 122.398,5.76563 C122.268,5.73438 122.125,5.71875 121.969,5.71875 C121.406,5.71875 120.977,5.90104 120.68,6.26563 C120.383,6.63021 120.234,7.15104 120.234,7.82813 L120.234,11 L119.234,11 L119.234,4.98438 L120.234,4.98438 L120.234,5.92188 C120.432,5.55729 120.698,5.28646 121.031,5.10938 C121.365,4.93229 121.771,4.84375 122.25,4.84375 C122.323,4.84375 122.398,4.84635 122.477,4.85156 C122.555,4.85677 122.646,4.86979 122.75,4.89063 L122.75,5.90625"/>
</g>

<g fill="none" stroke="#000000" stroke-opacity="1" stroke-width="1" stroke-linecap="square" stroke-linejoin="bevel" transform="matrix(1.99923,0,0,1.99923,436.339,21.9915)"
font-family="sans" font-size="11" font-weight="100" font-style="normal" 
>
</g>

<g fill="none" stroke="#000000" stroke-opacity="1" stroke-width="1" stroke-linecap="square" stroke-linejoin="bevel" transform="matrix(1.99923,0,0,1.99923,436.339,21.9915)"
font-family="Ubuntu" font-size="11" font-weight="400" font-style="normal" 
>
</g>

<g fill="none" stroke="#000000" stroke-opacity="1" stroke-width="1" stroke-linecap="square" stroke-linejoin="bevel" transform="matrix(1.99923,0,0,1.99923,-0.00239907,287.889)"
font-family="Ubuntu" font-size="11" font-weight="400" font-style="normal" 
>
</g>

<g fill="none" stroke="#000000" stroke-opacity="1" stroke-width="1" stroke-linecap="square" stroke-linejoin="bevel" transform="matrix(1.99923,0,0,1.99923,-0.00239907,287.889)"
font-family="Ubuntu" font-size="11" font-weight="400" font-style="normal" 
>
</g>

<g fill="none" stroke="#000000" stroke-opacity="1" stroke-width="1" stroke-linecap="square" stroke-linejoin="bevel" transform="matrix(1.99923,0,0,1.99923,-0.00239907,287.889)"
font-family="Ubuntu" font-size="11" font-weight="400" font-style="normal" 
>
</g>

<g fill="none" stroke="#000000" stroke-opacity="1" stroke-width="1" stroke-linecap="square" stroke-linejoin="round" transform="matrix(1.99923,0,0,1.99923,-0.00239907,287.889)"
font-family="Ubuntu" font-size="11" font-weight="400" font-style="normal" 
>
<ellipse cx="40.296" cy="-72" rx="39.7948" ry="17.5"/>
</g>

<g fill="none" stroke="#000000" stroke-opacity="1" stroke-width="1" stroke-linecap="square" stroke-linejoin="bevel" transform="matrix(1.99923,0,0,1.99923,-0.00239907,287.889)"
font-family="Ubuntu" font-size="11" font-weight="400" font-style="normal" 
>
</g>

<g fill="none" stroke="#000000" stroke-opacity="1" stroke-width="1" stroke-linecap="square" stroke-linejoin="bevel" transform="matrix(1.99923,0,0,1.99923,37.2627,129.95)"
font-family="Ubuntu" font-size="11" font-weight="400" font-style="normal" 
>
</g>

<g fill="none" stroke="#000000" stroke-opacity="1" stroke-width="1" stroke-linecap="square" stroke-linejoin="bevel" transform="matrix(1.99923,0,0,1.99923,37.2627,129.95)"
font-family="sans" font-size="11" font-weight="100" font-style="normal" 
>
</g>

<g fill="#000000" fill-opacity="1" stroke="#000000" stroke-opacity="1" stroke-width="1" stroke-linecap="square" stroke-linejoin="round" transform="matrix(1.99923,0,0,1.99923,37.2627,129.95)"
font-family="sans" font-size="11" font-weight="100" font-style="normal" 
>
<path vector-effect="none" fill-rule="nonzero" d="M2.79688,2.98438 L3.70313,2.98438 L0.90625,12.0156 L0,12.0156 L2.79688,2.98438 M4.73438,4.98438 L5.73438,4.98438 L5.73438,11.1094 C5.73438,11.8698 5.58854,12.4219 5.29688,12.7656 C5.00521,13.1094 4.53125,13.2813 3.875,13.2813 L3.5,13.2813 L3.5,12.4531 L3.76563,12.4531 C4.14063,12.4531 4.39583,12.3646 4.53125,12.1875 C4.66667,12.0104 4.73438,11.651 4.73438,11.1094 L4.73438,4.98438 M4.73438,2.64063 L5.73438,2.64063 L5.73438,3.89063 L4.73438,3.89063 L4.73438,2.64063 M7.78125,4.98438 L8.78125,4.98438 L8.78125,11 L7.78125,11 L7.78125,4.98438 M7.78125,2.64063 L8.78125,2.64063 L8.78125,3.89063 L7.78125,3.89063 L7.78125,2.64063 M15.8281,7.375 L15.8281,11 L14.8438,11 L14.8438,7.40625 C14.8438,6.83333 14.7344,6.40625 14.5156,6.125 C14.2969,5.84375 13.9635,5.70313 13.5156,5.70313 C12.9844,5.70313 12.5651,5.8724 12.2578,6.21094 C11.9505,6.54948 11.7969,7.01042 11.7969,7.59375 L11.7969,11 L10.7969,11 L10.7969,4.98438 L11.7969,4.98438 L11.7969,5.92188 C12.026,5.55729 12.3021,5.28646 12.625,5.10938 C12.9479,4.93229 13.3177,4.84375 13.7344,4.84375 C14.4219,4.84375 14.9427,5.05729 15.2969,5.48438 C15.651,5.91146 15.8281,6.54167 15.8281,7.375 M18.7813,3.28125 L18.7813,4.98438 L20.8125,4.98438 L20.8125,5.75 L18.7813,5.75 L18.7813,9.01563 C18.7813,9.50521 18.849,9.82031 18.9844,9.96094 C19.1198,10.1016 19.3906,10.1719 19.7969,10.1719 L20.8125,10.1719 L20.8125,11 L19.7969,11 C19.0365,11 18.5104,10.8568 18.2188,10.5703 C17.9271,10.2839 17.7813,9.76563 17.7813,9.01563 L17.7813,5.75 L17.0625,5.75 L17.0625,4.98438 L17.7813,4.98438 L17.7813,3.28125 L18.7813,3.28125 M26.6875,12.8281 L26.6875,13.5938 L20.9688,13.5938 L20.9688,12.8281 L26.6875,12.8281 M31.4531,5.15625 L31.4531,6.09375 C31.1719,5.94792 30.8802,5.84115 30.5781,5.77344 C30.276,5.70573 29.9635,5.67188 29.6406,5.67188 C29.151,5.67188 28.7839,5.7474 28.5391,5.89844 C28.2943,6.04948 28.1719,6.27083 28.1719,6.5625 C28.1719,6.79167 28.2604,6.97135 28.4375,7.10156 C28.6146,7.23177 28.9688,7.35938 29.5,7.48438 L29.8281,7.5625 C30.5365,7.70833 31.0365,7.91927 31.3281,8.19531 C31.6198,8.47135 31.7656,8.85417 31.7656,9.34375 C31.7656,9.89583 31.5469,10.3359 31.1094,10.6641 C30.6719,10.9922 30.0625,11.1563 29.2813,11.1563 C28.9583,11.1563 28.6224,11.125 28.2734,11.0625 C27.9245,11 27.5573,10.9063 27.1719,10.7813 L27.1719,9.76563 C27.5365,9.95313 27.8958,10.0938 28.25,10.1875 C28.6042,10.2813 28.9583,10.3281 29.3125,10.3281 C29.7708,10.3281 30.125,10.2474 30.375,10.0859 C30.625,9.92448 30.75,9.70313 30.75,9.42188 C30.75,9.15104 30.6615,8.94271 30.4844,8.79688 C30.3073,8.65104 29.9115,8.51563 29.2969,8.39063 L28.9531,8.29688 C28.3385,8.17188 27.8958,7.97656 27.625,7.71094 C27.3542,7.44531 27.2188,7.07813 27.2188,6.60938 C27.2188,6.04688 27.4193,5.61198 27.8203,5.30469 C28.2214,4.9974 28.7917,4.84375 29.5313,4.84375 C29.8958,4.84375 30.2396,4.86979 30.5625,4.92188 C30.8854,4.97396 31.1823,5.05208 31.4531,5.15625 M36.8125,5.90625 C36.7083,5.84375 36.5911,5.79688 36.4609,5.76563 C36.3307,5.73438 36.1875,5.71875 36.0313,5.71875 C35.4688,5.71875 35.0391,5.90104 34.7422,6.26563 C34.4453,6.63021 34.2969,7.15104 34.2969,7.82813 L34.2969,11 L33.2969,11 L33.2969,4.98438 L34.2969,4.98438 L34.2969,5.92188 C34.4948,5.55729 34.7604,5.28646 35.0938,5.10938 C35.4271,4.93229 35.8333,4.84375 36.3125,4.84375 C36.3854,4.84375 36.4609,4.84635 36.5391,4.85156 C36.6172,4.85677 36.7083,4.86979 36.8125,4.89063 L36.8125,5.90625 M37.1406,4.98438 L38.1875,4.98438 L40.0625,10.0313 L41.9531,4.98438 L43,4.98438 L40.7344,11 L39.3906,11 L37.1406,4.98438"/>
</g>

<g fill="none" stroke="#000000" stroke-opacity="1" stroke-width="1" stroke-linecap="square" stroke-linejoin="bevel" transform="matrix(1.99923,0,0,1.99923,37.2627,129.95)"
font-family="sans" font-size="11" font-weight="100" font-style="normal" 
>
</g>

<g fill="none" stroke="#000000" stroke-opacity="1" stroke-width="1" stroke-linecap="square" stroke-linejoin="bevel" transform="matrix(1.99923,0,0,1.99923,37.2627,129.95)"
font-family="Ubuntu" font-size="11" font-weight="400" font-style="normal" 
>
</g>

<g fill="none" stroke="#000000" stroke-opacity="1" stroke-width="1" stroke-linecap="square" stroke-linejoin="bevel" transform="matrix(1.99923,0,0,1.99923,-0.00239907,287.889)"
font-family="Ubuntu" font-size="11" font-weight="400" font-style="normal" 
>
</g>

<g fill="none" stroke="#000000" stroke-opacity="1" stroke-width="1" stroke-linecap="square" stroke-linejoin="bevel" transform="matrix(1.99923,0,0,1.99923,-0.00239907,287.889)"
font-family="Ubuntu" font-size="11" font-weight="400" font-style="normal" 
>
</g>

<g fill="none" stroke="#000000" stroke-opacity="1" stroke-width="1" stroke-linecap="square" stroke-linejoin="bevel" transform="matrix(1.99923,0,0,1.99923,-0.00239907,287.889)"
font-family="Ubuntu" font-size="11" font-weight="400" font-style="normal" 
>
</g>

<g fill="none" stroke="#000000" stroke-opacity="1" stroke-width="1" stroke-linecap="square" stroke-linejoin="round" transform="matrix(1.99923,0,0,1.99923,-0.00239907,287.889)"
font-family="Ubuntu" font-size="11" font-weight="400" font-style="normal" 
>
<rect x="383.178" y="-35.5" width="84.0032" height="35"/>
</g>

<g fill="none" stroke="#000000" stroke-opacity="1" stroke-width="1" stroke-linecap="square" stroke-linejoin="bevel" transform="matrix(1.99923,0,0,1.99923,-0.00239907,287.889)"
font-family="Ubuntu" font-size="11" font-weight="400" font-style="normal" 
>
</g>

<g fill="none" stroke="#000000" stroke-opacity="1" stroke-width="1" stroke-linecap="square" stroke-linejoin="bevel" transform="matrix(1.99923,0,0,1.99923,787.694,237.908)"
font-family="Ubuntu" font-size="11" font-weight="400" font-style="normal" 
>
</g>

<g fill="none" stroke="#000000" stroke-opacity="1" stroke-width="1" stroke-linecap="square" stroke-linejoin="bevel" transform="matrix(1.99923,0,0,1.99923,787.694,237.908)"
font-family="sans" font-size="11" font-weight="100" font-style="normal" 
>
</g>

<g fill="#000000" fill-opacity="1" stroke="#000000" stroke-opacity="1" stroke-width="1" stroke-linecap="square" stroke-linejoin="round" transform="matrix(1.99923,0,0,1.99923,787.694,237.908)"
font-family="sans" font-size="11" font-weight="100" font-style="normal" 
>
<path vector-effect="none" fill-rule="nonzero" d="M2.79688,2.98438 L3.70313,2.98438 L0.90625,12.0156 L0,12.0156 L2.79688,2.98438 M4.78125,2.98438 L6.25,2.98438 L9.79688,9.6875 L9.79688,2.98438 L10.8594,2.98438 L10.8594,11 L9.39063,11 L5.82813,4.29688 L5.82813,11 L4.78125,11 L4.78125,2.98438 M15.2969,5.67188 C14.7656,5.67188 14.3464,5.88021 14.0391,6.29688 C13.7318,6.71354 13.5781,7.28125 13.5781,8 C13.5781,8.71875 13.7292,9.28385 14.0313,9.69531 C14.3333,10.1068 14.7552,10.3125 15.2969,10.3125 C15.8177,10.3125 16.2318,10.1068 16.5391,9.69531 C16.8464,9.28385 17,8.71875 17,8 C17,7.28125 16.8464,6.71354 16.5391,6.29688 C16.2318,5.88021 15.8177,5.67188 15.2969,5.67188 M15.2969,4.84375 C16.151,4.84375 16.8229,5.1224 17.3125,5.67969 C17.8021,6.23698 18.0469,7.01042 18.0469,8 C18.0469,8.97917 17.8021,9.75 17.3125,10.3125 C16.8229,10.875 16.151,11.1563 15.2969,11.1563 C14.4323,11.1563 13.7552,10.875 13.2656,10.3125 C12.776,9.75 12.5313,8.97917 12.5313,8 C12.5313,7.01042 12.776,6.23698 13.2656,5.67969 C13.7552,5.1224 14.4323,4.84375 15.2969,4.84375 M19.7188,2.98438 L20.8125,2.98438 L20.8125,6.375 L24.4063,2.98438 L25.7969,2.98438 L21.8281,6.71875 L26.0781,11 L24.6563,11 L20.8125,7.14063 L20.8125,11 L19.7188,11 L19.7188,2.98438 M30.8438,5.89063 L30.8438,2.64063 L31.8281,2.64063 L31.8281,11 L30.8438,11 L30.8438,10.0938 C30.6354,10.4583 30.3724,10.7266 30.0547,10.8984 C29.737,11.0703 29.3542,11.1563 28.9063,11.1563 C28.1875,11.1563 27.599,10.8672 27.1406,10.2891 C26.6823,9.71094 26.4531,8.94792 26.4531,8 C26.4531,7.05208 26.6823,6.28906 27.1406,5.71094 C27.599,5.13281 28.1875,4.84375 28.9063,4.84375 C29.3542,4.84375 29.737,4.92969 30.0547,5.10156 C30.3724,5.27344 30.6354,5.53646 30.8438,5.89063 M27.4688,8 C27.4688,8.72917 27.6198,9.29948 27.9219,9.71094 C28.224,10.1224 28.6354,10.3281 29.1563,10.3281 C29.6771,10.3281 30.0885,10.1224 30.3906,9.71094 C30.6927,9.29948 30.8438,8.72917 30.8438,8 C30.8438,7.27083 30.6927,6.70052 30.3906,6.28906 C30.0885,5.8776 29.6771,5.67188 29.1563,5.67188 C28.6354,5.67188 28.224,5.8776 27.9219,6.28906 C27.6198,6.70052 27.4688,7.27083 27.4688,8 M33.8438,2.64063 L34.8438,2.64063 L34.8438,11 L33.8438,11 L33.8438,2.64063 M39.625,4.04688 L38.1406,8.04688 L41.0938,8.04688 L39.625,4.04688 M39,2.98438 L40.2344,2.98438 L43.2969,11 L42.1719,11 L41.4375,8.9375 L37.8125,8.9375 L37.0938,11 L35.9531,11 L39,2.98438 M49.4063,4.98438 L47.2344,7.90625 L49.5313,11 L48.3594,11 L46.6094,8.64063 L44.8594,11 L43.6875,11 L46.0313,7.85938 L43.8906,4.98438 L45.0625,4.98438 L46.6563,7.125 L48.25,4.98438 L49.4063,4.98438 M56.0625,7.75 L56.0625,8.23438 L51.5156,8.23438 C51.5573,8.91146 51.7604,9.42708 52.125,9.78125 C52.4896,10.1354 53,10.3125 53.6563,10.3125 C54.0417,10.3125 54.4115,10.2656 54.7656,10.1719 C55.1198,10.0781 55.474,9.94271 55.8281,9.76563 L55.8281,10.6875 C55.474,10.8438 55.1094,10.9609 54.7344,11.0391 C54.3594,11.1172 53.9844,11.1563 53.6094,11.1563 C52.6406,11.1563 51.8776,10.8776 51.3203,10.3203 C50.763,9.76302 50.4844,9.00521 50.4844,8.04688 C50.4844,7.06771 50.75,6.28906 51.2813,5.71094 C51.8125,5.13281 52.5313,4.84375 53.4375,4.84375 C54.2396,4.84375 54.8776,5.10417 55.3516,5.625 C55.8255,6.14583 56.0625,6.85417 56.0625,7.75 M55.0625,7.45313 C55.0625,6.91146 54.9141,6.47917 54.6172,6.15625 C54.3203,5.83333 53.9271,5.67188 53.4375,5.67188 C52.8854,5.67188 52.4453,5.82813 52.1172,6.14063 C51.7891,6.45313 51.599,6.89063 51.5469,7.45313 L55.0625,7.45313 M61.5156,5.15625 L61.5156,6.09375 C61.2344,5.94792 60.9427,5.84115 60.6406,5.77344 C60.3385,5.70573 60.026,5.67188 59.7031,5.67188 C59.2135,5.67188 58.8464,5.7474 58.6016,5.89844 C58.3568,6.04948 58.2344,6.27083 58.2344,6.5625 C58.2344,6.79167 58.3229,6.97135 58.5,7.10156 C58.6771,7.23177 59.0313,7.35938 59.5625,7.48438 L59.8906,7.5625 C60.599,7.70833 61.099,7.91927 61.3906,8.19531 C61.6823,8.47135 61.8281,8.85417 61.8281,9.34375 C61.8281,9.89583 61.6094,10.3359 61.1719,10.6641 C60.7344,10.9922 60.125,11.1563 59.3438,11.1563 C59.0208,11.1563 58.6849,11.125 58.3359,11.0625 C57.987,11 57.6198,10.9063 57.2344,10.7813 L57.2344,9.76563 C57.599,9.95313 57.9583,10.0938 58.3125,10.1875 C58.6667,10.2813 59.0208,10.3281 59.375,10.3281 C59.8333,10.3281 60.1875,10.2474 60.4375,10.0859 C60.6875,9.92448 60.8125,9.70313 60.8125,9.42188 C60.8125,9.15104 60.724,8.94271 60.5469,8.79688 C60.3698,8.65104 59.974,8.51563 59.3594,8.39063 L59.0156,8.29688 C58.401,8.17188 57.9583,7.97656 57.6875,7.71094 C57.4167,7.44531 57.2813,7.07813 57.2813,6.60938 C57.2813,6.04688 57.4818,5.61198 57.8828,5.30469 C58.2839,4.9974 58.8542,4.84375 59.5938,4.84375 C59.9583,4.84375 60.3021,4.86979 60.625,4.92188 C60.9479,4.97396 61.2448,5.05208 61.5156,5.15625 "/>
</g>

<g fill="none" stroke="#000000" stroke-opacity="1" stroke-width="1" stroke-linecap="square" stroke-linejoin="bevel" transform="matrix(1.99923,0,0,1.99923,787.694,237.908)"
font-family="sans" font-size="11" font-weight="100" font-style="normal" 
>
</g>

<g fill="none" stroke="#000000" stroke-opacity="1" stroke-width="1" stroke-linecap="square" stroke-linejoin="bevel" transform="matrix(1.99923,0,0,1.99923,787.694,237.908)"
font-family="Ubuntu" font-size="11" font-weight="400" font-style="normal" 
>
</g>

<g fill="none" stroke="#000000" stroke-opacity="1" stroke-width="1" stroke-linecap="square" stroke-linejoin="bevel" transform="matrix(1.99923,0,0,1.99923,-0.00239907,287.889)"
font-family="Ubuntu" font-size="11" font-weight="400" font-style="normal" 
>
</g>

<g fill="none" stroke="#000000" stroke-opacity="1" stroke-width="1" stroke-linecap="square" stroke-linejoin="bevel" transform="matrix(1.99923,0,0,1.99923,-0.00239907,287.889)"
font-family="Ubuntu" font-size="11" font-weight="400" font-style="normal" 
>
</g>

<g fill="none" stroke="#000000" stroke-opacity="1" stroke-width="1" stroke-linecap="square" stroke-linejoin="bevel" transform="matrix(1.99923,0,0,1.99923,-0.00239907,287.889)"
font-family="Ubuntu" font-size="11" font-weight="400" font-style="normal" 
>
</g>

<g fill="none" stroke="#000000" stroke-opacity="1" stroke-width="1" stroke-linecap="square" stroke-linejoin="round" transform="matrix(1.99923,0,0,1.99923,-0.00239907,287.889)"
font-family="Ubuntu" font-size="11" font-weight="400" font-style="normal" 
>
<path vector-effect="none" fill-rule="evenodd" d="M176.87,-72 C187.67,-72 199.61,-72 211.41,-72 "/>
</g>

<g fill="none" stroke="#000000" stroke-opacity="1" stroke-width="1" stroke-linecap="square" stroke-linejoin="bevel" transform="matrix(1.99923,0,0,1.99923,-0.00239907,287.889)"
font-family="Ubuntu" font-size="11" font-weight="400" font-style="normal" 
>
</g>

<g fill="none" stroke="#000000" stroke-opacity="1" stroke-width="1" stroke-linecap="square" stroke-linejoin="bevel" transform="matrix(1.99923,0,0,1.99923,-0.00239907,287.889)"
font-family="Ubuntu" font-size="11" font-weight="400" font-style="normal" 
>
</g>

<g fill="#000000" fill-opacity="1" stroke="#000000" stroke-opacity="1" stroke-width="1" stroke-linecap="square" stroke-linejoin="round" transform="matrix(1.99923,0,0,1.99923,-0.00239907,287.889)"
font-family="Ubuntu" font-size="11" font-weight="400" font-style="normal" 
>
<path vector-effect="none" fill-rule="evenodd" d="M211.41,-72 L211.41,-68.3915 L221.72,-72 L211.41,-75.6085 L211.41,-72"/>
</g>

<g fill="none" stroke="#000000" stroke-opacity="1" stroke-width="1" stroke-linecap="square" stroke-linejoin="bevel" transform="matrix(1.99923,0,0,1.99923,-0.00239907,287.889)"
font-family="Ubuntu" font-size="11" font-weight="400" font-style="normal" 
>
</g>

<g fill="none" stroke="#000000" stroke-opacity="1" stroke-width="1" stroke-linecap="square" stroke-linejoin="bevel" transform="matrix(1.99923,0,0,1.99923,-0.00239907,287.889)"
font-family="Ubuntu" font-size="11" font-weight="400" font-style="normal" 
>
</g>

<g fill="none" stroke="#000000" stroke-opacity="1" stroke-width="1" stroke-linecap="square" stroke-linejoin="bevel" transform="matrix(1.99923,0,0,1.99923,-0.00239907,287.889)"
font-family="Ubuntu" font-size="11" font-weight="400" font-style="normal" 
>
</g>

<g fill="none" stroke="#000000" stroke-opacity="1" stroke-width="1" stroke-linecap="square" stroke-linejoin="bevel" transform="matrix(1.99923,0,0,1.99923,-0.00239907,287.889)"
font-family="Ubuntu" font-size="11" font-weight="400" font-style="normal" 
>
</g>

<g fill="none" stroke="#000000" stroke-opacity="1" stroke-width="1" stroke-linecap="square" stroke-linejoin="round" transform="matrix(1.99923,0,0,1.99923,-0.00239907,287.889)"
font-family="Ubuntu" font-size="11" font-weight="400" font-style="normal" 
>
<path vector-effect="none" fill-rule="evenodd" d="M80.711,-72 C81.852,-72 82.999,-72 84.149,-72 "/>
</g>

<g fill="none" stroke="#000000" stroke-opacity="1" stroke-width="1" stroke-linecap="square" stroke-linejoin="bevel" transform="matrix(1.99923,0,0,1.99923,-0.00239907,287.889)"
font-family="Ubuntu" font-size="11" font-weight="400" font-style="normal" 
>
</g>

<g fill="none" stroke="#000000" stroke-opacity="1" stroke-width="1" stroke-linecap="square" stroke-linejoin="bevel" transform="matrix(1.99923,0,0,1.99923,-0.00239907,287.889)"
font-family="Ubuntu" font-size="11" font-weight="400" font-style="normal" 
>
</g>

<g fill="#000000" fill-opacity="1" stroke="#000000" stroke-opacity="1" stroke-width="1" stroke-linecap="square" stroke-linejoin="round" transform="matrix(1.99923,0,0,1.99923,-0.00239907,287.889)"
font-family="Ubuntu" font-size="11" font-weight="400" font-style="normal" 
>
<path vector-effect="none" fill-rule="evenodd" d="M84.149,-72 L84.149,-68.3747 L94.507,-72 L84.149,-75.6253 L84.149,-72"/>
</g>

<g fill="none" stroke="#000000" stroke-opacity="1" stroke-width="1" stroke-linecap="square" stroke-linejoin="bevel" transform="matrix(1.99923,0,0,1.99923,-0.00239907,287.889)"
font-family="Ubuntu" font-size="11" font-weight="400" font-style="normal" 
>
</g>

<g fill="none" stroke="#000000" stroke-opacity="1" stroke-width="1" stroke-linecap="square" stroke-linejoin="bevel" transform="matrix(1.99923,0,0,1.99923,-0.00239907,287.889)"
font-family="Ubuntu" font-size="11" font-weight="400" font-style="normal" 
>
</g>

<g fill="none" stroke="#000000" stroke-opacity="1" stroke-width="1" stroke-linecap="square" stroke-linejoin="bevel" transform="matrix(1.99923,0,0,1.99923,-0.00239907,287.889)"
font-family="Ubuntu" font-size="11" font-weight="400" font-style="normal" 
>
</g>

<g fill="none" stroke="#000000" stroke-opacity="1" stroke-width="1" stroke-linecap="square" stroke-linejoin="bevel" transform="matrix(1.99923,0,0,1.99923,-0.00239907,287.889)"
font-family="Ubuntu" font-size="11" font-weight="400" font-style="normal" 
>
</g>

<g fill="none" stroke="#000000" stroke-opacity="1" stroke-width="1" stroke-linecap="square" stroke-linejoin="round" transform="matrix(1.99923,0,0,1.99923,-0.00239907,287.889)"
font-family="Ubuntu" font-size="11" font-weight="400" font-style="normal" 
>
<path vector-effect="none" fill-rule="evenodd" d="M170.12,-90.006 C176.83,-93.2 183.86,-96.348 190.59,-99 C198.98,-102.31 207.94,-105.45 216.83,-108.35 "/>
</g>

<g fill="none" stroke="#000000" stroke-opacity="1" stroke-width="1" stroke-linecap="square" stroke-linejoin="bevel" transform="matrix(1.99923,0,0,1.99923,-0.00239907,287.889)"
font-family="Ubuntu" font-size="11" font-weight="400" font-style="normal" 
>
</g>

<g fill="none" stroke="#000000" stroke-opacity="1" stroke-width="1" stroke-linecap="square" stroke-linejoin="bevel" transform="matrix(1.99923,0,0,1.99923,-0.00239907,287.889)"
font-family="Ubuntu" font-size="11" font-weight="400" font-style="normal" 
>
</g>

<g fill="#000000" fill-opacity="1" stroke="#000000" stroke-opacity="1" stroke-width="1" stroke-linecap="square" stroke-linejoin="round" transform="matrix(1.99923,0,0,1.99923,-0.00239907,287.889)"
font-family="Ubuntu" font-size="11" font-weight="400" font-style="normal" 
>
<path vector-effect="none" fill-rule="evenodd" d="M216.83,-108.35 L217.898,-104.993 L226.42,-111.4 L215.763,-111.706 L216.83,-108.35"/>
</g>

<g fill="none" stroke="#000000" stroke-opacity="1" stroke-width="1" stroke-linecap="square" stroke-linejoin="bevel" transform="matrix(1.99923,0,0,1.99923,-0.00239907,287.889)"
font-family="Ubuntu" font-size="11" font-weight="400" font-style="normal" 
>
</g>

<g fill="none" stroke="#000000" stroke-opacity="1" stroke-width="1" stroke-linecap="square" stroke-linejoin="bevel" transform="matrix(1.99923,0,0,1.99923,-0.00239907,287.889)"
font-family="Ubuntu" font-size="11" font-weight="400" font-style="normal" 
>
</g>

<g fill="none" stroke="#000000" stroke-opacity="1" stroke-width="1" stroke-linecap="square" stroke-linejoin="bevel" transform="matrix(1.99923,0,0,1.99923,-0.00239907,287.889)"
font-family="Ubuntu" font-size="11" font-weight="400" font-style="normal" 
>
</g>

<g fill="none" stroke="#000000" stroke-opacity="1" stroke-width="1" stroke-linecap="square" stroke-linejoin="bevel" transform="matrix(1.99923,0,0,1.99923,-0.00239907,287.889)"
font-family="Ubuntu" font-size="11" font-weight="400" font-style="normal" 
>
</g>

<g fill="none" stroke="#000000" stroke-opacity="1" stroke-width="1" stroke-linecap="square" stroke-linejoin="round" transform="matrix(1.99923,0,0,1.99923,-0.00239907,287.889)"
font-family="Ubuntu" font-size="11" font-weight="400" font-style="normal" 
>
<path vector-effect="none" fill-rule="evenodd" d="M170.12,-53.994 C176.83,-50.8 183.86,-47.652 190.59,-45 C199.84,-41.358 209.78,-37.907 219.55,-34.767 "/>
</g>

<g fill="none" stroke="#000000" stroke-opacity="1" stroke-width="1" stroke-linecap="square" stroke-linejoin="bevel" transform="matrix(1.99923,0,0,1.99923,-0.00239907,287.889)"
font-family="Ubuntu" font-size="11" font-weight="400" font-style="normal" 
>
</g>

<g fill="none" stroke="#000000" stroke-opacity="1" stroke-width="1" stroke-linecap="square" stroke-linejoin="bevel" transform="matrix(1.99923,0,0,1.99923,-0.00239907,287.889)"
font-family="Ubuntu" font-size="11" font-weight="400" font-style="normal" 
>
</g>

<g fill="#000000" fill-opacity="1" stroke="#000000" stroke-opacity="1" stroke-width="1" stroke-linecap="square" stroke-linejoin="round" transform="matrix(1.99923,0,0,1.99923,-0.00239907,287.889)"
font-family="Ubuntu" font-size="11" font-weight="400" font-style="normal" 
>
<path vector-effect="none" fill-rule="evenodd" d="M219.55,-34.767 L218.488,-31.379 L229.23,-31.733 L220.612,-38.155 L219.55,-34.767"/>
</g>

<g fill="none" stroke="#000000" stroke-opacity="1" stroke-width="1" stroke-linecap="square" stroke-linejoin="bevel" transform="matrix(1.99923,0,0,1.99923,-0.00239907,287.889)"
font-family="Ubuntu" font-size="11" font-weight="400" font-style="normal" 
>
</g>

<g fill="none" stroke="#000000" stroke-opacity="1" stroke-width="1" stroke-linecap="square" stroke-linejoin="bevel" transform="matrix(1.99923,0,0,1.99923,-0.00239907,287.889)"
font-family="Ubuntu" font-size="11" font-weight="400" font-style="normal" 
>
</g>

<g fill="none" stroke="#000000" stroke-opacity="1" stroke-width="1" stroke-linecap="square" stroke-linejoin="bevel" transform="matrix(1.99923,0,0,1.99923,-0.00239907,287.889)"
font-family="Ubuntu" font-size="11" font-weight="400" font-style="normal" 
>
</g>

<g fill="none" stroke="#000000" stroke-opacity="1" stroke-width="1" stroke-linecap="square" stroke-linejoin="bevel" transform="matrix(1.99923,0,0,1.99923,-0.00239907,287.889)"
font-family="Ubuntu" font-size="11" font-weight="400" font-style="normal" 
>
</g>

<g fill="none" stroke="#000000" stroke-opacity="1" stroke-width="1" stroke-linecap="square" stroke-linejoin="round" transform="matrix(1.99923,0,0,1.99923,-0.00239907,287.889)"
font-family="Ubuntu" font-size="11" font-weight="400" font-style="normal" 
>
<path vector-effect="none" fill-rule="evenodd" d="M356.67,-18 C361.93,-18 367.16,-18 372.26,-18 "/>
</g>

<g fill="none" stroke="#000000" stroke-opacity="1" stroke-width="1" stroke-linecap="square" stroke-linejoin="bevel" transform="matrix(1.99923,0,0,1.99923,-0.00239907,287.889)"
font-family="Ubuntu" font-size="11" font-weight="400" font-style="normal" 
>
</g>

<g fill="none" stroke="#000000" stroke-opacity="1" stroke-width="1" stroke-linecap="square" stroke-linejoin="bevel" transform="matrix(1.99923,0,0,1.99923,-0.00239907,287.889)"
font-family="Ubuntu" font-size="11" font-weight="400" font-style="normal" 
>
</g>

<g fill="#000000" fill-opacity="1" stroke="#000000" stroke-opacity="1" stroke-width="1" stroke-linecap="square" stroke-linejoin="round" transform="matrix(1.99923,0,0,1.99923,-0.00239907,287.889)"
font-family="Ubuntu" font-size="11" font-weight="400" font-style="normal" 
>
<path vector-effect="none" fill-rule="evenodd" d="M372.26,-18 L372.26,-14.423 L382.48,-18 L372.26,-21.577 L372.26,-18"/>
</g>

<g fill="none" stroke="#000000" stroke-opacity="1" stroke-width="1" stroke-linecap="square" stroke-linejoin="bevel" transform="matrix(1.99923,0,0,1.99923,-0.00239907,287.889)"
font-family="Ubuntu" font-size="11" font-weight="400" font-style="normal" 
>
</g>

<g fill="none" stroke="#000000" stroke-opacity="1" stroke-width="1" stroke-linecap="square" stroke-linejoin="bevel" transform="matrix(1.99923,0,0,1.99923,-0.00239907,287.889)"
font-family="Ubuntu" font-size="11" font-weight="400" font-style="normal" 
>
</g>

<g fill="none" stroke="#000000" stroke-opacity="1" stroke-width="1" stroke-linecap="square" stroke-linejoin="bevel" transform="matrix(1.99923,0,0,1.99923,-0.00239907,287.889)"
font-family="Ubuntu" font-size="11" font-weight="400" font-style="normal" 
>
</g>

<g fill="none" stroke="#000000" stroke-opacity="1" stroke-width="1" stroke-linecap="square" stroke-linejoin="bevel" transform="matrix(1.99923,0,0,1.99923,-0.00239907,287.889)"
font-family="Ubuntu" font-size="11" font-weight="400" font-style="normal" 
>
</g>

<g fill="none" stroke="#000000" stroke-opacity="1" stroke-width="1" stroke-linecap="square" stroke-linejoin="round" transform="matrix(1.99923,0,0,1.99923,-0.00239907,287.889)"
font-family="Ubuntu" font-size="11" font-weight="400" font-style="normal" 
>
<path vector-effect="none" fill-rule="evenodd" d="M337.58,-72 C351.98,-72 367.19,-72 380.82,-72 "/>
</g>

<g fill="none" stroke="#000000" stroke-opacity="1" stroke-width="1" stroke-linecap="square" stroke-linejoin="bevel" transform="matrix(1.99923,0,0,1.99923,-0.00239907,287.889)"
font-family="Ubuntu" font-size="11" font-weight="400" font-style="normal" 
>
</g>

<g fill="none" stroke="#000000" stroke-opacity="1" stroke-width="1" stroke-linecap="square" stroke-linejoin="bevel" transform="matrix(1.99923,0,0,1.99923,-0.00239907,287.889)"
font-family="Ubuntu" font-size="11" font-weight="400" font-style="normal" 
>
</g>

<g fill="#000000" fill-opacity="1" stroke="#000000" stroke-opacity="1" stroke-width="1" stroke-linecap="square" stroke-linejoin="round" transform="matrix(1.99923,0,0,1.99923,-0.00239907,287.889)"
font-family="Ubuntu" font-size="11" font-weight="400" font-style="normal" 
>
<path vector-effect="none" fill-rule="evenodd" d="M380.82,-72 L380.82,-68.472 L390.9,-72 L380.82,-75.528 L380.82,-72"/>
</g>

<g fill="none" stroke="#000000" stroke-opacity="1" stroke-width="1" stroke-linecap="square" stroke-linejoin="bevel" transform="matrix(1.99923,0,0,1.99923,-0.00239907,287.889)"
font-family="Ubuntu" font-size="11" font-weight="400" font-style="normal" 
>
</g>

<g fill="none" stroke="#000000" stroke-opacity="1" stroke-width="1" stroke-linecap="square" stroke-linejoin="bevel" transform="matrix(1,0,0,1,0,0)"
font-family="Ubuntu" font-size="11" font-weight="400" font-style="normal" 
>
</g>
</g>
</svg>
