<?xml version="1.0" encoding="UTF-8" standalone="no"?>
<svg width="306.564mm" height="25.4mm"
 xmlns="http://www.w3.org/2000/svg" xmlns:xlink="http://www.w3.org/1999/xlink"  version="1.2" baseProfile="tiny">
<title>Qt SVG Document</title>
<desc>Generated with Qt</desc>
<defs>
</defs>
<g fill="none" stroke="black" stroke-width="1" fill-rule="evenodd" stroke-linecap="square" stroke-linejoin="bevel" >

<g fill="none" stroke="#000000" stroke-opacity="1" stroke-width="1" stroke-linecap="square" stroke-linejoin="bevel" transform="matrix(1,0,0,1,0,0)"
font-family="Ubuntu" font-size="11" font-weight="400" font-style="normal" 
>
</g>

<g fill="none" stroke="#000000" stroke-opacity="1" stroke-width="1" stroke-linecap="square" stroke-linejoin="bevel" transform="matrix(1,0,0,1,0,0)"
font-family="Ubuntu" font-size="11" font-weight="400" font-style="normal" 
>
</g>

<g fill="none" stroke="#000000" stroke-opacity="1" stroke-width="1" stroke-linecap="square" stroke-linejoin="bevel" transform="matrix(2,0,0,2,-0.0016,72)"
font-family="Ubuntu" font-size="11" font-weight="400" font-style="normal" 
>
</g>

<g fill="#ffffff" fill-opacity="1" stroke="none" transform="matrix(2,0,0,2,-0.0016,72)"
font-family="Ubuntu" font-size="11" font-weight="400" font-style="normal" 
>
<rect x="0.0008" y="-36" width="434.272" height="36"/>
</g>

<g fill="none" stroke="#000000" stroke-opacity="1" stroke-width="1" stroke-linecap="square" stroke-linejoin="bevel" transform="matrix(2,0,0,2,-0.0016,72)"
font-family="Ubuntu" font-size="11" font-weight="400" font-style="normal" 
>
</g>

<g fill="none" stroke="#000000" stroke-opacity="1" stroke-width="1" stroke-linecap="square" stroke-linejoin="bevel" transform="matrix(2,0,0,2,-0.0016,72)"
font-family="Ubuntu" font-size="11" font-weight="400" font-style="normal" 
>
</g>

<g fill="none" stroke="#000000" stroke-opacity="1" stroke-width="1" stroke-linecap="square" stroke-linejoin="bevel" transform="matrix(2,0,0,2,-0.0016,72)"
font-family="Ubuntu" font-size="11" font-weight="400" font-style="normal" 
>
</g>

<g fill="none" stroke="#000000" stroke-opacity="1" stroke-width="1" stroke-linecap="square" stroke-linejoin="bevel" transform="matrix(2,0,0,2,-0.0016,72)"
font-family="Ubuntu" font-size="11" font-weight="400" font-style="normal" 
>
</g>

<g fill="none" stroke="#000000" stroke-opacity="1" stroke-width="1" stroke-linecap="square" stroke-linejoin="round" transform="matrix(2,0,0,2,-0.0016,72)"
font-family="Ubuntu" font-size="11" font-weight="400" font-style="normal" 
>
<ellipse cx="345.23" cy="-18" rx="88.5424" ry="17.5"/>
</g>

<g fill="none" stroke="#000000" stroke-opacity="1" stroke-width="1" stroke-linecap="square" stroke-linejoin="bevel" transform="matrix(2,0,0,2,-0.0016,72)"
font-family="Ubuntu" font-size="11" font-weight="400" font-style="normal" 
>
</g>

<g fill="none" stroke="#000000" stroke-opacity="1" stroke-width="1" stroke-linecap="square" stroke-linejoin="bevel" transform="matrix(2,0,0,2,567.708,22)"
font-family="Ubuntu" font-size="11" font-weight="400" font-style="normal" 
>
</g>

<g fill="none" stroke="#000000" stroke-opacity="1" stroke-width="1" stroke-linecap="square" stroke-linejoin="bevel" transform="matrix(2,0,0,2,567.708,22)"
font-family="sans" font-size="11" font-weight="100" font-style="normal" 
>
</g>

<g fill="#000000" fill-opacity="1" stroke="#000000" stroke-opacity="1" stroke-width="1" stroke-linecap="square" stroke-linejoin="round" transform="matrix(2,0,0,2,567.708,22)"
font-family="sans" font-size="11" font-weight="100" font-style="normal" 
>
<path vector-effect="none" fill-rule="nonzero" d="M2.79688,2.98438 L3.70313,2.98438 L0.90625,12.0156 L0,12.0156 L2.79688,2.98438 M8.21875,5.90625 C8.11458,5.84375 7.9974,5.79688 7.86719,5.76563 C7.73698,5.73438 7.59375,5.71875 7.4375,5.71875 C6.875,5.71875 6.44531,5.90104 6.14844,6.26563 C5.85156,6.63021 5.70313,7.15104 5.70313,7.82813 L5.70313,11 L4.70313,11 L4.70313,4.98438 L5.70313,4.98438 L5.70313,5.92188 C5.90104,5.55729 6.16667,5.28646 6.5,5.10938 C6.83333,4.93229 7.23958,4.84375 7.71875,4.84375 C7.79167,4.84375 7.86719,4.84635 7.94531,4.85156 C8.02344,4.85677 8.11458,4.86979 8.21875,4.89063 L8.21875,5.90625 M11.5938,5.67188 C11.0625,5.67188 10.6432,5.88021 10.3359,6.29688 C10.0286,6.71354 9.875,7.28125 9.875,8 C9.875,8.71875 10.026,9.28385 10.3281,9.69531 C10.6302,10.1068 11.0521,10.3125 11.5938,10.3125 C12.1146,10.3125 12.5286,10.1068 12.8359,9.69531 C13.1432,9.28385 13.2969,8.71875 13.2969,8 C13.2969,7.28125 13.1432,6.71354 12.8359,6.29688 C12.5286,5.88021 12.1146,5.67188 11.5938,5.67188 M11.5938,4.84375 C12.4479,4.84375 13.1198,5.1224 13.6094,5.67969 C14.099,6.23698 14.3438,7.01042 14.3438,8 C14.3438,8.97917 14.099,9.75 13.6094,10.3125 C13.1198,10.875 12.4479,11.1563 11.5938,11.1563 C10.7292,11.1563 10.0521,10.875 9.5625,10.3125 C9.07292,9.75 8.82813,8.97917 8.82813,8 C8.82813,7.01042 9.07292,6.23698 9.5625,5.67969 C10.0521,5.1224 10.7292,4.84375 11.5938,4.84375 M20.2969,8 C20.2969,7.27083 20.1458,6.70052 19.8438,6.28906 C19.5417,5.8776 19.1302,5.67188 18.6094,5.67188 C18.0885,5.67188 17.6797,5.8776 17.3828,6.28906 C17.0859,6.70052 16.9375,7.27083 16.9375,8 C16.9375,8.72917 17.0859,9.29948 17.3828,9.71094 C17.6797,10.1224 18.0885,10.3281 18.6094,10.3281 C19.1302,10.3281 19.5417,10.1224 19.8438,9.71094 C20.1458,9.29948 20.2969,8.72917 20.2969,8 M16.9375,5.89063 C17.1354,5.53646 17.3932,5.27344 17.7109,5.10156 C18.0286,4.92969 18.4115,4.84375 18.8594,4.84375 C19.5885,4.84375 20.1797,5.13281 20.6328,5.71094 C21.0859,6.28906 21.3125,7.05208 21.3125,8 C21.3125,8.94792 21.0859,9.71094 20.6328,10.2891 C20.1797,10.8672 19.5885,11.1563 18.8594,11.1563 C18.4115,11.1563 18.0286,11.0703 17.7109,10.8984 C17.3932,10.7266 17.1354,10.4583 16.9375,10.0938 L16.9375,11 L15.9375,11 L15.9375,2.64063 L16.9375,2.64063 L16.9375,5.89063 M25.2813,5.67188 C24.75,5.67188 24.3307,5.88021 24.0234,6.29688 C23.7161,6.71354 23.5625,7.28125 23.5625,8 C23.5625,8.71875 23.7135,9.28385 24.0156,9.69531 C24.3177,10.1068 24.7396,10.3125 25.2813,10.3125 C25.8021,10.3125 26.2161,10.1068 26.5234,9.69531 C26.8307,9.28385 26.9844,8.71875 26.9844,8 C26.9844,7.28125 26.8307,6.71354 26.5234,6.29688 C26.2161,5.88021 25.8021,5.67188 25.2813,5.67188 M25.2813,4.84375 C26.1354,4.84375 26.8073,5.1224 27.2969,5.67969 C27.7865,6.23698 28.0313,7.01042 28.0313,8 C28.0313,8.97917 27.7865,9.75 27.2969,10.3125 C26.8073,10.875 26.1354,11.1563 25.2813,11.1563 C24.4167,11.1563 23.7396,10.875 23.25,10.3125 C22.7604,9.75 22.5156,8.97917 22.5156,8 C22.5156,7.01042 22.7604,6.23698 23.25,5.67969 C23.7396,5.1224 24.4167,4.84375 25.2813,4.84375 M30.6406,3.28125 L30.6406,4.98438 L32.6719,4.98438 L32.6719,5.75 L30.6406,5.75 L30.6406,9.01563 C30.6406,9.50521 30.7083,9.82031 30.8438,9.96094 C30.9792,10.1016 31.25,10.1719 31.6563,10.1719 L32.6719,10.1719 L32.6719,11 L31.6563,11 C30.8958,11 30.3698,10.8568 30.0781,10.5703 C29.7865,10.2839 29.6406,9.76563 29.6406,9.01563 L29.6406,5.75 L28.9219,5.75 L28.9219,4.98438 L29.6406,4.98438 L29.6406,3.28125 L30.6406,3.28125 M38.5469,12.8281 L38.5469,13.5938 L32.8281,13.5938 L32.8281,12.8281 L38.5469,12.8281 M43.3125,5.15625 L43.3125,6.09375 C43.0313,5.94792 42.7396,5.84115 42.4375,5.77344 C42.1354,5.70573 41.8229,5.67188 41.5,5.67188 C41.0104,5.67188 40.6432,5.7474 40.3984,5.89844 C40.1536,6.04948 40.0313,6.27083 40.0313,6.5625 C40.0313,6.79167 40.1198,6.97135 40.2969,7.10156 C40.474,7.23177 40.8281,7.35938 41.3594,7.48438 L41.6875,7.5625 C42.3958,7.70833 42.8958,7.91927 43.1875,8.19531 C43.4792,8.47135 43.625,8.85417 43.625,9.34375 C43.625,9.89583 43.4063,10.3359 42.9688,10.6641 C42.5313,10.9922 41.9219,11.1563 41.1406,11.1563 C40.8177,11.1563 40.4818,11.125 40.1328,11.0625 C39.7839,11 39.4167,10.9063 39.0313,10.7813 L39.0313,9.76563 C39.3958,9.95313 39.7552,10.0938 40.1094,10.1875 C40.4635,10.2813 40.8177,10.3281 41.1719,10.3281 C41.6302,10.3281 41.9844,10.2474 42.2344,10.0859 C42.4844,9.92448 42.6094,9.70313 42.6094,9.42188 C42.6094,9.15104 42.5208,8.94271 42.3438,8.79688 C42.1667,8.65104 41.7708,8.51563 41.1563,8.39063 L40.8125,8.29688 C40.1979,8.17188 39.7552,7.97656 39.4844,7.71094 C39.2135,7.44531 39.0781,7.07813 39.0781,6.60938 C39.0781,6.04688 39.2786,5.61198 39.6797,5.30469 C40.0807,4.9974 40.651,4.84375 41.3906,4.84375 C41.7552,4.84375 42.099,4.86979 42.4219,4.92188 C42.7448,4.97396 43.0417,5.05208 43.3125,5.15625 M46.1719,3.28125 L46.1719,4.98438 L48.2031,4.98438 L48.2031,5.75 L46.1719,5.75 L46.1719,9.01563 C46.1719,9.50521 46.2396,9.82031 46.375,9.96094 C46.5104,10.1016 46.7813,10.1719 47.1875,10.1719 L48.2031,10.1719 L48.2031,11 L47.1875,11 C46.4271,11 45.901,10.8568 45.6094,10.5703 C45.3177,10.2839 45.1719,9.76563 45.1719,9.01563 L45.1719,5.75 L44.4531,5.75 L44.4531,4.98438 L45.1719,4.98438 L45.1719,3.28125 L46.1719,3.28125 M52.2344,7.96875 C51.4427,7.96875 50.8932,8.0625 50.5859,8.25 C50.2786,8.4375 50.125,8.75 50.125,9.1875 C50.125,9.53125 50.2396,9.80729 50.4688,10.0156 C50.6979,10.224 51.0104,10.3281 51.4063,10.3281 C51.9583,10.3281 52.3984,10.1328 52.7266,9.74219 C53.0547,9.35156 53.2188,8.83854 53.2188,8.20313 L53.2188,7.96875 L52.2344,7.96875 M54.2031,7.5625 L54.2031,11 L53.2188,11 L53.2188,10.0938 C53,10.4583 52.7214,10.7266 52.3828,10.8984 C52.0443,11.0703 51.6302,11.1563 51.1406,11.1563 C50.526,11.1563 50.0365,10.9844 49.6719,10.6406 C49.3073,10.2969 49.125,9.83333 49.125,9.25 C49.125,8.57292 49.3516,8.0625 49.8047,7.71875 C50.2578,7.375 50.9375,7.20313 51.8438,7.20313 L53.2188,7.20313 L53.2188,7.10938 C53.2188,6.65104 53.0703,6.29688 52.7734,6.04688 C52.4766,5.79688 52.0573,5.67188 51.5156,5.67188 C51.1719,5.67188 50.8359,5.71354 50.5078,5.79688 C50.1797,5.88021 49.8646,6.00521 49.5625,6.17188 L49.5625,5.26563 C49.9271,5.11979 50.2813,5.01302 50.625,4.94531 C50.9688,4.8776 51.2969,4.84375 51.6094,4.84375 C52.4844,4.84375 53.1354,5.06771 53.5625,5.51563 C53.9896,5.96354 54.2031,6.64583 54.2031,7.5625 M57.2188,3.28125 L57.2188,4.98438 L59.25,4.98438 L59.25,5.75 L57.2188,5.75 L57.2188,9.01563 C57.2188,9.50521 57.2865,9.82031 57.4219,9.96094 C57.5573,10.1016 57.8281,10.1719 58.2344,10.1719 L59.25,10.1719 L59.25,11 L58.2344,11 C57.474,11 56.9479,10.8568 56.6563,10.5703 C56.3646,10.2839 56.2188,9.76563 56.2188,9.01563 L56.2188,5.75 L55.5,5.75 L55.5,4.98438 L56.2188,4.98438 L56.2188,3.28125 L57.2188,3.28125 M65.7031,7.75 L65.7031,8.23438 L61.1563,8.23438 C61.1979,8.91146 61.401,9.42708 61.7656,9.78125 C62.1302,10.1354 62.6406,10.3125 63.2969,10.3125 C63.6823,10.3125 64.0521,10.2656 64.4063,10.1719 C64.7604,10.0781 65.1146,9.94271 65.4688,9.76563 L65.4688,10.6875 C65.1146,10.8438 64.75,10.9609 64.375,11.0391 C64,11.1172 63.625,11.1563 63.25,11.1563 C62.2813,11.1563 61.5182,10.8776 60.9609,10.3203 C60.4036,9.76302 60.125,9.00521 60.125,8.04688 C60.125,7.06771 60.3906,6.28906 60.9219,5.71094 C61.4531,5.13281 62.1719,4.84375 63.0781,4.84375 C63.8802,4.84375 64.5182,5.10417 64.9922,5.625 C65.4661,6.14583 65.7031,6.85417 65.7031,7.75 M64.7031,7.45313 C64.7031,6.91146 64.5547,6.47917 64.2578,6.15625 C63.9609,5.83333 63.5677,5.67188 63.0781,5.67188 C62.526,5.67188 62.0859,5.82813 61.7578,6.14063 C61.4297,6.45313 61.2396,6.89063 61.1875,7.45313 L64.7031,7.45313 M71.8906,12.8281 L71.8906,13.5938 L66.1719,13.5938 L66.1719,12.8281 L71.8906,12.8281 M73.7813,10.0938 L73.7813,13.2813 L72.7813,13.2813 L72.7813,4.98438 L73.7813,4.98438 L73.7813,5.89063 C73.9792,5.53646 74.237,5.27344 74.5547,5.10156 C74.8724,4.92969 75.2552,4.84375 75.7031,4.84375 C76.4323,4.84375 77.0234,5.13281 77.4766,5.71094 C77.9297,6.28906 78.1563,7.05208 78.1563,8 C78.1563,8.94792 77.9297,9.71094 77.4766,10.2891 C77.0234,10.8672 76.4323,11.1563 75.7031,11.1563 C75.2552,11.1563 74.8724,11.0703 74.5547,10.8984 C74.237,10.7266 73.9792,10.4583 73.7813,10.0938 M77.1406,8 C77.1406,7.27083 76.9896,6.70052 76.6875,6.28906 C76.3854,5.8776 75.974,5.67188 75.4531,5.67188 C74.9323,5.67188 74.5234,5.8776 74.2266,6.28906 C73.9297,6.70052 73.7813,7.27083 73.7813,8 C73.7813,8.72917 73.9297,9.29948 74.2266,9.71094 C74.5234,10.1224 74.9323,10.3281 75.4531,10.3281 C75.974,10.3281 76.3854,10.1224 76.6875,9.71094 C76.9896,9.29948 77.1406,8.72917 77.1406,8 M79.6875,8.625 L79.6875,4.98438 L80.6719,4.98438 L80.6719,8.59375 C80.6719,9.15625 80.7839,9.58073 81.0078,9.86719 C81.2318,10.1536 81.5625,10.2969 82,10.2969 C82.5417,10.2969 82.9661,10.1276 83.2734,9.78906 C83.5807,9.45052 83.7344,8.98438 83.7344,8.39063 L83.7344,4.98438 L84.7188,4.98438 L84.7188,11 L83.7344,11 L83.7344,10.0781 C83.4948,10.4427 83.2161,10.7135 82.8984,10.8906 C82.5807,11.0677 82.2135,11.1563 81.7969,11.1563 C81.1094,11.1563 80.5859,10.9401 80.2266,10.5078 C79.8672,10.0755 79.6875,9.44792 79.6875,8.625 M91.0781,8 C91.0781,7.27083 90.9271,6.70052 90.625,6.28906 C90.3229,5.8776 89.9115,5.67188 89.3906,5.67188 C88.8698,5.67188 88.4609,5.8776 88.1641,6.28906 C87.8672,6.70052 87.7188,7.27083 87.7188,8 C87.7188,8.72917 87.8672,9.29948 88.1641,9.71094 C88.4609,10.1224 88.8698,10.3281 89.3906,10.3281 C89.9115,10.3281 90.3229,10.1224 90.625,9.71094 C90.9271,9.29948 91.0781,8.72917 91.0781,8 M87.7188,5.89063 C87.9167,5.53646 88.1745,5.27344 88.4922,5.10156 C88.8099,4.92969 89.1927,4.84375 89.6406,4.84375 C90.3698,4.84375 90.9609,5.13281 91.4141,5.71094 C91.8672,6.28906 92.0938,7.05208 92.0938,8 C92.0938,8.94792 91.8672,9.71094 91.4141,10.2891 C90.9609,10.8672 90.3698,11.1563 89.6406,11.1563 C89.1927,11.1563 88.8099,11.0703 88.4922,10.8984 C88.1745,10.7266 87.9167,10.4583 87.7188,10.0938 L87.7188,11 L86.7188,11 L86.7188,2.64063 L87.7188,2.64063 L87.7188,5.89063 M93.7188,2.64063 L94.7188,2.64063 L94.7188,11 L93.7188,11 L93.7188,2.64063 M96.7656,4.98438 L97.7656,4.98438 L97.7656,11 L96.7656,11 L96.7656,4.98438 M96.7656,2.64063 L97.7656,2.64063 L97.7656,3.89063 L96.7656,3.89063 L96.7656,2.64063 M103.656,5.15625 L103.656,6.09375 C103.375,5.94792 103.083,5.84115 102.781,5.77344 C102.479,5.70573 102.167,5.67188 101.844,5.67188 C101.354,5.67188 100.987,5.7474 100.742,5.89844 C100.497,6.04948 100.375,6.27083 100.375,6.5625 C100.375,6.79167 100.464,6.97135 100.641,7.10156 C100.818,7.23177 101.172,7.35938 101.703,7.48438 L102.031,7.5625 C102.74,7.70833 103.24,7.91927 103.531,8.19531 C103.823,8.47135 103.969,8.85417 103.969,9.34375 C103.969,9.89583 103.75,10.3359 103.313,10.6641 C102.875,10.9922 102.266,11.1563 101.484,11.1563 C101.161,11.1563 100.826,11.125 100.477,11.0625 C100.128,11 99.7604,10.9063 99.375,10.7813 L99.375,9.76563 C99.7396,9.95313 100.099,10.0938 100.453,10.1875 C100.807,10.2813 101.161,10.3281 101.516,10.3281 C101.974,10.3281 102.328,10.2474 102.578,10.0859 C102.828,9.92448 102.953,9.70313 102.953,9.42188 C102.953,9.15104 102.865,8.94271 102.688,8.79688 C102.51,8.65104 102.115,8.51563 101.5,8.39063 L101.156,8.29688 C100.542,8.17188 100.099,7.97656 99.8281,7.71094 C99.5573,7.44531 99.4219,7.07813 99.4219,6.60938 C99.4219,6.04688 99.6224,5.61198 100.023,5.30469 C100.424,4.9974 100.995,4.84375 101.734,4.84375 C102.099,4.84375 102.443,4.86979 102.766,4.92188 C103.089,4.97396 103.385,5.05208 103.656,5.15625 M110.531,7.375 L110.531,11 L109.547,11 L109.547,7.40625 C109.547,6.83333 109.438,6.40625 109.219,6.125 C109,5.84375 108.667,5.70313 108.219,5.70313 C107.688,5.70313 107.268,5.8724 106.961,6.21094 C106.654,6.54948 106.5,7.01042 106.5,7.59375 L106.5,11 L105.5,11 L105.5,2.64063 L106.5,2.64063 L106.5,5.92188 C106.729,5.55729 107.005,5.28646 107.328,5.10938 C107.651,4.93229 108.021,4.84375 108.438,4.84375 C109.125,4.84375 109.646,5.05729 110,5.48438 C110.354,5.91146 110.531,6.54167 110.531,7.375 M117.656,7.75 L117.656,8.23438 L113.109,8.23438 C113.151,8.91146 113.354,9.42708 113.719,9.78125 C114.083,10.1354 114.594,10.3125 115.25,10.3125 C115.635,10.3125 116.005,10.2656 116.359,10.1719 C116.714,10.0781 117.068,9.94271 117.422,9.76563 L117.422,10.6875 C117.068,10.8438 116.703,10.9609 116.328,11.0391 C115.953,11.1172 115.578,11.1563 115.203,11.1563 C114.234,11.1563 113.471,10.8776 112.914,10.3203 C112.357,9.76302 112.078,9.00521 112.078,8.04688 C112.078,7.06771 112.344,6.28906 112.875,5.71094 C113.406,5.13281 114.125,4.84375 115.031,4.84375 C115.833,4.84375 116.471,5.10417 116.945,5.625 C117.419,6.14583 117.656,6.85417 117.656,7.75 M116.656,7.45313 C116.656,6.91146 116.508,6.47917 116.211,6.15625 C115.914,5.83333 115.521,5.67188 115.031,5.67188 C114.479,5.67188 114.039,5.82813 113.711,6.14063 C113.383,6.45313 113.193,6.89063 113.141,7.45313 L116.656,7.45313 M122.75,5.90625 C122.646,5.84375 122.529,5.79688 122.398,5.76563 C122.268,5.73438 122.125,5.71875 121.969,5.71875 C121.406,5.71875 120.977,5.90104 120.68,6.26563 C120.383,6.63021 120.234,7.15104 120.234,7.82813 L120.234,11 L119.234,11 L119.234,4.98438 L120.234,4.98438 L120.234,5.92188 C120.432,5.55729 120.698,5.28646 121.031,5.10938 C121.365,4.93229 121.771,4.84375 122.25,4.84375 C122.323,4.84375 122.398,4.84635 122.477,4.85156 C122.555,4.85677 122.646,4.86979 122.75,4.89063 L122.75,5.90625"/>
</g>

<g fill="none" stroke="#000000" stroke-opacity="1" stroke-width="1" stroke-linecap="square" stroke-linejoin="bevel" transform="matrix(2,0,0,2,567.708,22)"
font-family="sans" font-size="11" font-weight="100" font-style="normal" 
>
</g>

<g fill="none" stroke="#000000" stroke-opacity="1" stroke-width="1" stroke-linecap="square" stroke-linejoin="bevel" transform="matrix(2,0,0,2,567.708,22)"
font-family="Ubuntu" font-size="11" font-weight="400" font-style="normal" 
>
</g>

<g fill="none" stroke="#000000" stroke-opacity="1" stroke-width="1" stroke-linecap="square" stroke-linejoin="bevel" transform="matrix(2,0,0,2,-0.0016,72)"
font-family="Ubuntu" font-size="11" font-weight="400" font-style="normal" 
>
</g>

<g fill="none" stroke="#000000" stroke-opacity="1" stroke-width="1" stroke-linecap="square" stroke-linejoin="bevel" transform="matrix(2,0,0,2,-0.0016,72)"
font-family="Ubuntu" font-size="11" font-weight="400" font-style="normal" 
>
</g>

<g fill="none" stroke="#000000" stroke-opacity="1" stroke-width="1" stroke-linecap="square" stroke-linejoin="bevel" transform="matrix(2,0,0,2,-0.0016,72)"
font-family="Ubuntu" font-size="11" font-weight="400" font-style="normal" 
>
</g>

<g fill="none" stroke="#000000" stroke-opacity="1" stroke-width="1" stroke-linecap="square" stroke-linejoin="round" transform="matrix(2,0,0,2,-0.0016,72)"
font-family="Ubuntu" font-size="11" font-weight="400" font-style="normal" 
>
<ellipse cx="87.092" cy="-18" rx="86.5912" ry="17.5"/>
</g>

<g fill="none" stroke="#000000" stroke-opacity="1" stroke-width="1" stroke-linecap="square" stroke-linejoin="bevel" transform="matrix(2,0,0,2,-0.0016,72)"
font-family="Ubuntu" font-size="11" font-weight="400" font-style="normal" 
>
</g>

<g fill="none" stroke="#000000" stroke-opacity="1" stroke-width="1" stroke-linecap="square" stroke-linejoin="bevel" transform="matrix(2,0,0,2,56.573,22)"
font-family="Ubuntu" font-size="11" font-weight="400" font-style="normal" 
>
</g>

<g fill="none" stroke="#000000" stroke-opacity="1" stroke-width="1" stroke-linecap="square" stroke-linejoin="bevel" transform="matrix(2,0,0,2,56.573,22)"
font-family="sans" font-size="11" font-weight="100" font-style="normal" 
>
</g>

<g fill="#000000" fill-opacity="1" stroke="#000000" stroke-opacity="1" stroke-width="1" stroke-linecap="square" stroke-linejoin="round" transform="matrix(2,0,0,2,56.573,22)"
font-family="sans" font-size="11" font-weight="100" font-style="normal" 
>
<path vector-effect="none" fill-rule="nonzero" d="M2.79688,2.98438 L3.70313,2.98438 L0.90625,12.0156 L0,12.0156 L2.79688,2.98438 M4.73438,4.98438 L5.73438,4.98438 L5.73438,11.1094 C5.73438,11.8698 5.58854,12.4219 5.29688,12.7656 C5.00521,13.1094 4.53125,13.2813 3.875,13.2813 L3.5,13.2813 L3.5,12.4531 L3.76563,12.4531 C4.14063,12.4531 4.39583,12.3646 4.53125,12.1875 C4.66667,12.0104 4.73438,11.651 4.73438,11.1094 L4.73438,4.98438 M4.73438,2.64063 L5.73438,2.64063 L5.73438,3.89063 L4.73438,3.89063 L4.73438,2.64063 M10.125,5.67188 C9.59375,5.67188 9.17448,5.88021 8.86719,6.29688 C8.5599,6.71354 8.40625,7.28125 8.40625,8 C8.40625,8.71875 8.55729,9.28385 8.85938,9.69531 C9.16146,10.1068 9.58333,10.3125 10.125,10.3125 C10.6458,10.3125 11.0599,10.1068 11.3672,9.69531 C11.6745,9.28385 11.8281,8.71875 11.8281,8 C11.8281,7.28125 11.6745,6.71354 11.3672,6.29688 C11.0599,5.88021 10.6458,5.67188 10.125,5.67188 M10.125,4.84375 C10.9792,4.84375 11.651,5.1224 12.1406,5.67969 C12.6302,6.23698 12.875,7.01042 12.875,8 C12.875,8.97917 12.6302,9.75 12.1406,10.3125 C11.651,10.875 10.9792,11.1563 10.125,11.1563 C9.26042,11.1563 8.58333,10.875 8.09375,10.3125 C7.60417,9.75 7.35938,8.97917 7.35938,8 C7.35938,7.01042 7.60417,6.23698 8.09375,5.67969 C8.58333,5.1224 9.26042,4.84375 10.125,4.84375 M14.5,4.98438 L15.5,4.98438 L15.5,11 L14.5,11 L14.5,4.98438 M14.5,2.64063 L15.5,2.64063 L15.5,3.89063 L14.5,3.89063 L14.5,2.64063 M22.5469,7.375 L22.5469,11 L21.5625,11 L21.5625,7.40625 C21.5625,6.83333 21.4531,6.40625 21.2344,6.125 C21.0156,5.84375 20.6823,5.70313 20.2344,5.70313 C19.7031,5.70313 19.2839,5.8724 18.9766,6.21094 C18.6693,6.54948 18.5156,7.01042 18.5156,7.59375 L18.5156,11 L17.5156,11 L17.5156,4.98438 L18.5156,4.98438 L18.5156,5.92188 C18.7448,5.55729 19.0208,5.28646 19.3438,5.10938 C19.6667,4.93229 20.0365,4.84375 20.4531,4.84375 C21.1406,4.84375 21.6615,5.05729 22.0156,5.48438 C22.3698,5.91146 22.5469,6.54167 22.5469,7.375 M25.5,3.28125 L25.5,4.98438 L27.5313,4.98438 L27.5313,5.75 L25.5,5.75 L25.5,9.01563 C25.5,9.50521 25.5677,9.82031 25.7031,9.96094 C25.8385,10.1016 26.1094,10.1719 26.5156,10.1719 L27.5313,10.1719 L27.5313,11 L26.5156,11 C25.7552,11 25.2292,10.8568 24.9375,10.5703 C24.6458,10.2839 24.5,9.76563 24.5,9.01563 L24.5,5.75 L23.7813,5.75 L23.7813,4.98438 L24.5,4.98438 L24.5,3.28125 L25.5,3.28125 M33.4063,12.8281 L33.4063,13.5938 L27.6875,13.5938 L27.6875,12.8281 L33.4063,12.8281 M38.1719,5.15625 L38.1719,6.09375 C37.8906,5.94792 37.599,5.84115 37.2969,5.77344 C36.9948,5.70573 36.6823,5.67188 36.3594,5.67188 C35.8698,5.67188 35.5026,5.7474 35.2578,5.89844 C35.013,6.04948 34.8906,6.27083 34.8906,6.5625 C34.8906,6.79167 34.9792,6.97135 35.1563,7.10156 C35.3333,7.23177 35.6875,7.35938 36.2188,7.48438 L36.5469,7.5625 C37.2552,7.70833 37.7552,7.91927 38.0469,8.19531 C38.3385,8.47135 38.4844,8.85417 38.4844,9.34375 C38.4844,9.89583 38.2656,10.3359 37.8281,10.6641 C37.3906,10.9922 36.7813,11.1563 36,11.1563 C35.6771,11.1563 35.3411,11.125 34.9922,11.0625 C34.6432,11 34.276,10.9063 33.8906,10.7813 L33.8906,9.76563 C34.2552,9.95313 34.6146,10.0938 34.9688,10.1875 C35.3229,10.2813 35.6771,10.3281 36.0313,10.3281 C36.4896,10.3281 36.8438,10.2474 37.0938,10.0859 C37.3438,9.92448 37.4688,9.70313 37.4688,9.42188 C37.4688,9.15104 37.3802,8.94271 37.2031,8.79688 C37.026,8.65104 36.6302,8.51563 36.0156,8.39063 L35.6719,8.29688 C35.0573,8.17188 34.6146,7.97656 34.3438,7.71094 C34.0729,7.44531 33.9375,7.07813 33.9375,6.60938 C33.9375,6.04688 34.138,5.61198 34.5391,5.30469 C34.9401,4.9974 35.5104,4.84375 36.25,4.84375 C36.6146,4.84375 36.9583,4.86979 37.2813,4.92188 C37.6042,4.97396 37.901,5.05208 38.1719,5.15625 M41.0313,3.28125 L41.0313,4.98438 L43.0625,4.98438 L43.0625,5.75 L41.0313,5.75 L41.0313,9.01563 C41.0313,9.50521 41.099,9.82031 41.2344,9.96094 C41.3698,10.1016 41.6406,10.1719 42.0469,10.1719 L43.0625,10.1719 L43.0625,11 L42.0469,11 C41.2865,11 40.7604,10.8568 40.4688,10.5703 C40.1771,10.2839 40.0313,9.76563 40.0313,9.01563 L40.0313,5.75 L39.3125,5.75 L39.3125,4.98438 L40.0313,4.98438 L40.0313,3.28125 L41.0313,3.28125 M47.0938,7.96875 C46.3021,7.96875 45.7526,8.0625 45.4453,8.25 C45.138,8.4375 44.9844,8.75 44.9844,9.1875 C44.9844,9.53125 45.099,9.80729 45.3281,10.0156 C45.5573,10.224 45.8698,10.3281 46.2656,10.3281 C46.8177,10.3281 47.2578,10.1328 47.5859,9.74219 C47.9141,9.35156 48.0781,8.83854 48.0781,8.20313 L48.0781,7.96875 L47.0938,7.96875 M49.0625,7.5625 L49.0625,11 L48.0781,11 L48.0781,10.0938 C47.8594,10.4583 47.5807,10.7266 47.2422,10.8984 C46.9036,11.0703 46.4896,11.1563 46,11.1563 C45.3854,11.1563 44.8958,10.9844 44.5313,10.6406 C44.1667,10.2969 43.9844,9.83333 43.9844,9.25 C43.9844,8.57292 44.2109,8.0625 44.6641,7.71875 C45.1172,7.375 45.7969,7.20313 46.7031,7.20313 L48.0781,7.20313 L48.0781,7.10938 C48.0781,6.65104 47.9297,6.29688 47.6328,6.04688 C47.3359,5.79688 46.9167,5.67188 46.375,5.67188 C46.0313,5.67188 45.6953,5.71354 45.3672,5.79688 C45.0391,5.88021 44.724,6.00521 44.4219,6.17188 L44.4219,5.26563 C44.7865,5.11979 45.1406,5.01302 45.4844,4.94531 C45.8281,4.8776 46.1563,4.84375 46.4688,4.84375 C47.3438,4.84375 47.9948,5.06771 48.4219,5.51563 C48.849,5.96354 49.0625,6.64583 49.0625,7.5625 M52.0781,3.28125 L52.0781,4.98438 L54.1094,4.98438 L54.1094,5.75 L52.0781,5.75 L52.0781,9.01563 C52.0781,9.50521 52.1458,9.82031 52.2813,9.96094 C52.4167,10.1016 52.6875,10.1719 53.0938,10.1719 L54.1094,10.1719 L54.1094,11 L53.0938,11 C52.3333,11 51.8073,10.8568 51.5156,10.5703 C51.224,10.2839 51.0781,9.76563 51.0781,9.01563 L51.0781,5.75 L50.3594,5.75 L50.3594,4.98438 L51.0781,4.98438 L51.0781,3.28125 L52.0781,3.28125 M60.5625,7.75 L60.5625,8.23438 L56.0156,8.23438 C56.0573,8.91146 56.2604,9.42708 56.625,9.78125 C56.9896,10.1354 57.5,10.3125 58.1563,10.3125 C58.5417,10.3125 58.9115,10.2656 59.2656,10.1719 C59.6198,10.0781 59.974,9.94271 60.3281,9.76563 L60.3281,10.6875 C59.974,10.8438 59.6094,10.9609 59.2344,11.0391 C58.8594,11.1172 58.4844,11.1563 58.1094,11.1563 C57.1406,11.1563 56.3776,10.8776 55.8203,10.3203 C55.263,9.76302 54.9844,9.00521 54.9844,8.04688 C54.9844,7.06771 55.25,6.28906 55.7813,5.71094 C56.3125,5.13281 57.0313,4.84375 57.9375,4.84375 C58.7396,4.84375 59.3776,5.10417 59.8516,5.625 C60.3255,6.14583 60.5625,6.85417 60.5625,7.75 M59.5625,7.45313 C59.5625,6.91146 59.4141,6.47917 59.1172,6.15625 C58.8203,5.83333 58.4271,5.67188 57.9375,5.67188 C57.3854,5.67188 56.9453,5.82813 56.6172,6.14063 C56.2891,6.45313 56.099,6.89063 56.0469,7.45313 L59.5625,7.45313 M66.75,12.8281 L66.75,13.5938 L61.0313,13.5938 L61.0313,12.8281 L66.75,12.8281 M68.6406,10.0938 L68.6406,13.2813 L67.6406,13.2813 L67.6406,4.98438 L68.6406,4.98438 L68.6406,5.89063 C68.8385,5.53646 69.0964,5.27344 69.4141,5.10156 C69.7318,4.92969 70.1146,4.84375 70.5625,4.84375 C71.2917,4.84375 71.8828,5.13281 72.3359,5.71094 C72.7891,6.28906 73.0156,7.05208 73.0156,8 C73.0156,8.94792 72.7891,9.71094 72.3359,10.2891 C71.8828,10.8672 71.2917,11.1563 70.5625,11.1563 C70.1146,11.1563 69.7318,11.0703 69.4141,10.8984 C69.0964,10.7266 68.8385,10.4583 68.6406,10.0938 M72,8 C72,7.27083 71.849,6.70052 71.5469,6.28906 C71.2448,5.8776 70.8333,5.67188 70.3125,5.67188 C69.7917,5.67188 69.3828,5.8776 69.0859,6.28906 C68.7891,6.70052 68.6406,7.27083 68.6406,8 C68.6406,8.72917 68.7891,9.29948 69.0859,9.71094 C69.3828,10.1224 69.7917,10.3281 70.3125,10.3281 C70.8333,10.3281 71.2448,10.1224 71.5469,9.71094 C71.849,9.29948 72,8.72917 72,8 M74.5469,8.625 L74.5469,4.98438 L75.5313,4.98438 L75.5313,8.59375 C75.5313,9.15625 75.6432,9.58073 75.8672,9.86719 C76.0911,10.1536 76.4219,10.2969 76.8594,10.2969 C77.401,10.2969 77.8255,10.1276 78.1328,9.78906 C78.4401,9.45052 78.5938,8.98438 78.5938,8.39063 L78.5938,4.98438 L79.5781,4.98438 L79.5781,11 L78.5938,11 L78.5938,10.0781 C78.3542,10.4427 78.0755,10.7135 77.7578,10.8906 C77.4401,11.0677 77.0729,11.1563 76.6563,11.1563 C75.9688,11.1563 75.4453,10.9401 75.0859,10.5078 C74.7266,10.0755 74.5469,9.44792 74.5469,8.625 M85.9375,8 C85.9375,7.27083 85.7865,6.70052 85.4844,6.28906 C85.1823,5.8776 84.7708,5.67188 84.25,5.67188 C83.7292,5.67188 83.3203,5.8776 83.0234,6.28906 C82.7266,6.70052 82.5781,7.27083 82.5781,8 C82.5781,8.72917 82.7266,9.29948 83.0234,9.71094 C83.3203,10.1224 83.7292,10.3281 84.25,10.3281 C84.7708,10.3281 85.1823,10.1224 85.4844,9.71094 C85.7865,9.29948 85.9375,8.72917 85.9375,8 M82.5781,5.89063 C82.776,5.53646 83.0339,5.27344 83.3516,5.10156 C83.6693,4.92969 84.0521,4.84375 84.5,4.84375 C85.2292,4.84375 85.8203,5.13281 86.2734,5.71094 C86.7266,6.28906 86.9531,7.05208 86.9531,8 C86.9531,8.94792 86.7266,9.71094 86.2734,10.2891 C85.8203,10.8672 85.2292,11.1563 84.5,11.1563 C84.0521,11.1563 83.6693,11.0703 83.3516,10.8984 C83.0339,10.7266 82.776,10.4583 82.5781,10.0938 L82.5781,11 L81.5781,11 L81.5781,2.64063 L82.5781,2.64063 L82.5781,5.89063 M88.5781,2.64063 L89.5781,2.64063 L89.5781,11 L88.5781,11 L88.5781,2.64063 M91.625,4.98438 L92.625,4.98438 L92.625,11 L91.625,11 L91.625,4.98438 M91.625,2.64063 L92.625,2.64063 L92.625,3.89063 L91.625,3.89063 L91.625,2.64063 M98.5156,5.15625 L98.5156,6.09375 C98.2344,5.94792 97.9427,5.84115 97.6406,5.77344 C97.3385,5.70573 97.026,5.67188 96.7031,5.67188 C96.2135,5.67188 95.8464,5.7474 95.6016,5.89844 C95.3568,6.04948 95.2344,6.27083 95.2344,6.5625 C95.2344,6.79167 95.3229,6.97135 95.5,7.10156 C95.6771,7.23177 96.0313,7.35938 96.5625,7.48438 L96.8906,7.5625 C97.599,7.70833 98.099,7.91927 98.3906,8.19531 C98.6823,8.47135 98.8281,8.85417 98.8281,9.34375 C98.8281,9.89583 98.6094,10.3359 98.1719,10.6641 C97.7344,10.9922 97.125,11.1563 96.3438,11.1563 C96.0208,11.1563 95.6849,11.125 95.3359,11.0625 C94.987,11 94.6198,10.9063 94.2344,10.7813 L94.2344,9.76563 C94.599,9.95313 94.9583,10.0938 95.3125,10.1875 C95.6667,10.2813 96.0208,10.3281 96.375,10.3281 C96.8333,10.3281 97.1875,10.2474 97.4375,10.0859 C97.6875,9.92448 97.8125,9.70313 97.8125,9.42188 C97.8125,9.15104 97.724,8.94271 97.5469,8.79688 C97.3698,8.65104 96.974,8.51563 96.3594,8.39063 L96.0156,8.29688 C95.401,8.17188 94.9583,7.97656 94.6875,7.71094 C94.4167,7.44531 94.2813,7.07813 94.2813,6.60938 C94.2813,6.04688 94.4818,5.61198 94.8828,5.30469 C95.2839,4.9974 95.8542,4.84375 96.5938,4.84375 C96.9583,4.84375 97.3021,4.86979 97.625,4.92188 C97.9479,4.97396 98.2448,5.05208 98.5156,5.15625 M105.391,7.375 L105.391,11 L104.406,11 L104.406,7.40625 C104.406,6.83333 104.297,6.40625 104.078,6.125 C103.859,5.84375 103.526,5.70313 103.078,5.70313 C102.547,5.70313 102.128,5.8724 101.82,6.21094 C101.513,6.54948 101.359,7.01042 101.359,7.59375 L101.359,11 L100.359,11 L100.359,2.64063 L101.359,2.64063 L101.359,5.92188 C101.589,5.55729 101.865,5.28646 102.188,5.10938 C102.51,4.93229 102.88,4.84375 103.297,4.84375 C103.984,4.84375 104.505,5.05729 104.859,5.48438 C105.214,5.91146 105.391,6.54167 105.391,7.375 M112.516,7.75 L112.516,8.23438 L107.969,8.23438 C108.01,8.91146 108.214,9.42708 108.578,9.78125 C108.943,10.1354 109.453,10.3125 110.109,10.3125 C110.495,10.3125 110.865,10.2656 111.219,10.1719 C111.573,10.0781 111.927,9.94271 112.281,9.76563 L112.281,10.6875 C111.927,10.8438 111.563,10.9609 111.188,11.0391 C110.813,11.1172 110.438,11.1563 110.063,11.1563 C109.094,11.1563 108.331,10.8776 107.773,10.3203 C107.216,9.76302 106.938,9.00521 106.938,8.04688 C106.938,7.06771 107.203,6.28906 107.734,5.71094 C108.266,5.13281 108.984,4.84375 109.891,4.84375 C110.693,4.84375 111.331,5.10417 111.805,5.625 C112.279,6.14583 112.516,6.85417 112.516,7.75 M111.516,7.45313 C111.516,6.91146 111.367,6.47917 111.07,6.15625 C110.773,5.83333 110.38,5.67188 109.891,5.67188 C109.339,5.67188 108.898,5.82813 108.57,6.14063 C108.242,6.45313 108.052,6.89063 108,7.45313 L111.516,7.45313 M117.609,5.90625 C117.505,5.84375 117.388,5.79688 117.258,5.76563 C117.128,5.73438 116.984,5.71875 116.828,5.71875 C116.266,5.71875 115.836,5.90104 115.539,6.26563 C115.242,6.63021 115.094,7.15104 115.094,7.82813 L115.094,11 L114.094,11 L114.094,4.98438 L115.094,4.98438 L115.094,5.92188 C115.292,5.55729 115.557,5.28646 115.891,5.10938 C116.224,4.93229 116.63,4.84375 117.109,4.84375 C117.182,4.84375 117.258,4.84635 117.336,4.85156 C117.414,4.85677 117.505,4.86979 117.609,4.89063 L117.609,5.90625"/>
</g>

<g fill="none" stroke="#000000" stroke-opacity="1" stroke-width="1" stroke-linecap="square" stroke-linejoin="bevel" transform="matrix(2,0,0,2,56.573,22)"
font-family="sans" font-size="11" font-weight="100" font-style="normal" 
>
</g>

<g fill="none" stroke="#000000" stroke-opacity="1" stroke-width="1" stroke-linecap="square" stroke-linejoin="bevel" transform="matrix(2,0,0,2,56.573,22)"
font-family="Ubuntu" font-size="11" font-weight="400" font-style="normal" 
>
</g>

<g fill="none" stroke="#000000" stroke-opacity="1" stroke-width="1" stroke-linecap="square" stroke-linejoin="bevel" transform="matrix(2,0,0,2,-0.0016,72)"
font-family="Ubuntu" font-size="11" font-weight="400" font-style="normal" 
>
</g>

<g fill="none" stroke="#000000" stroke-opacity="1" stroke-width="1" stroke-linecap="square" stroke-linejoin="bevel" transform="matrix(2,0,0,2,-0.0016,72)"
font-family="Ubuntu" font-size="11" font-weight="400" font-style="normal" 
>
</g>

<g fill="none" stroke="#000000" stroke-opacity="1" stroke-width="1" stroke-linecap="square" stroke-linejoin="bevel" transform="matrix(2,0,0,2,-0.0016,72)"
font-family="Ubuntu" font-size="11" font-weight="400" font-style="normal" 
>
</g>

<g fill="none" stroke="#000000" stroke-opacity="1" stroke-width="1" stroke-linecap="square" stroke-linejoin="round" transform="matrix(2,0,0,2,-0.0016,72)"
font-family="Ubuntu" font-size="11" font-weight="400" font-style="normal" 
>
<path vector-effect="none" fill-rule="evenodd" d="M174.48,-18 C197.52,-18 222.54,-18 246.15,-18 "/>
</g>

<g fill="none" stroke="#000000" stroke-opacity="1" stroke-width="1" stroke-linecap="square" stroke-linejoin="bevel" transform="matrix(2,0,0,2,-0.0016,72)"
font-family="Ubuntu" font-size="11" font-weight="400" font-style="normal" 
>
</g>

<g fill="none" stroke="#000000" stroke-opacity="1" stroke-width="1" stroke-linecap="square" stroke-linejoin="bevel" transform="matrix(2,0,0,2,363.499,7)"
font-family="Ubuntu" font-size="11" font-weight="400" font-style="normal" 
>
</g>

<g fill="none" stroke="#000000" stroke-opacity="1" stroke-width="1" stroke-linecap="square" stroke-linejoin="bevel" transform="matrix(2,0,0,2,363.499,7)"
font-family="sans" font-size="11" font-weight="100" font-style="normal" 
>
</g>

<g fill="#000000" fill-opacity="1" stroke="#000000" stroke-opacity="1" stroke-width="1" stroke-linecap="square" stroke-linejoin="round" transform="matrix(2,0,0,2,363.499,7)"
font-family="sans" font-size="11" font-weight="100" font-style="normal" 
>
<path vector-effect="none" fill-rule="nonzero" d="M2.79688,2.98438 L3.70313,2.98438 L0.90625,12.0156 L0,12.0156 L2.79688,2.98438 M4.73438,4.98438 L5.73438,4.98438 L5.73438,11.1094 C5.73438,11.8698 5.58854,12.4219 5.29688,12.7656 C5.00521,13.1094 4.53125,13.2813 3.875,13.2813 L3.5,13.2813 L3.5,12.4531 L3.76563,12.4531 C4.14063,12.4531 4.39583,12.3646 4.53125,12.1875 C4.66667,12.0104 4.73438,11.651 4.73438,11.1094 L4.73438,4.98438 M4.73438,2.64063 L5.73438,2.64063 L5.73438,3.89063 L4.73438,3.89063 L4.73438,2.64063 M10.125,5.67188 C9.59375,5.67188 9.17448,5.88021 8.86719,6.29688 C8.5599,6.71354 8.40625,7.28125 8.40625,8 C8.40625,8.71875 8.55729,9.28385 8.85938,9.69531 C9.16146,10.1068 9.58333,10.3125 10.125,10.3125 C10.6458,10.3125 11.0599,10.1068 11.3672,9.69531 C11.6745,9.28385 11.8281,8.71875 11.8281,8 C11.8281,7.28125 11.6745,6.71354 11.3672,6.29688 C11.0599,5.88021 10.6458,5.67188 10.125,5.67188 M10.125,4.84375 C10.9792,4.84375 11.651,5.1224 12.1406,5.67969 C12.6302,6.23698 12.875,7.01042 12.875,8 C12.875,8.97917 12.6302,9.75 12.1406,10.3125 C11.651,10.875 10.9792,11.1563 10.125,11.1563 C9.26042,11.1563 8.58333,10.875 8.09375,10.3125 C7.60417,9.75 7.35938,8.97917 7.35938,8 C7.35938,7.01042 7.60417,6.23698 8.09375,5.67969 C8.58333,5.1224 9.26042,4.84375 10.125,4.84375 M14.5,4.98438 L15.5,4.98438 L15.5,11 L14.5,11 L14.5,4.98438 M14.5,2.64063 L15.5,2.64063 L15.5,3.89063 L14.5,3.89063 L14.5,2.64063 M22.5469,7.375 L22.5469,11 L21.5625,11 L21.5625,7.40625 C21.5625,6.83333 21.4531,6.40625 21.2344,6.125 C21.0156,5.84375 20.6823,5.70313 20.2344,5.70313 C19.7031,5.70313 19.2839,5.8724 18.9766,6.21094 C18.6693,6.54948 18.5156,7.01042 18.5156,7.59375 L18.5156,11 L17.5156,11 L17.5156,4.98438 L18.5156,4.98438 L18.5156,5.92188 C18.7448,5.55729 19.0208,5.28646 19.3438,5.10938 C19.6667,4.93229 20.0365,4.84375 20.4531,4.84375 C21.1406,4.84375 21.6615,5.05729 22.0156,5.48438 C22.3698,5.91146 22.5469,6.54167 22.5469,7.375 M25.5,3.28125 L25.5,4.98438 L27.5313,4.98438 L27.5313,5.75 L25.5,5.75 L25.5,9.01563 C25.5,9.50521 25.5677,9.82031 25.7031,9.96094 C25.8385,10.1016 26.1094,10.1719 26.5156,10.1719 L27.5313,10.1719 L27.5313,11 L26.5156,11 C25.7552,11 25.2292,10.8568 24.9375,10.5703 C24.6458,10.2839 24.5,9.76563 24.5,9.01563 L24.5,5.75 L23.7813,5.75 L23.7813,4.98438 L24.5,4.98438 L24.5,3.28125 L25.5,3.28125 M33.4063,12.8281 L33.4063,13.5938 L27.6875,13.5938 L27.6875,12.8281 L33.4063,12.8281 M38.1719,5.15625 L38.1719,6.09375 C37.8906,5.94792 37.599,5.84115 37.2969,5.77344 C36.9948,5.70573 36.6823,5.67188 36.3594,5.67188 C35.8698,5.67188 35.5026,5.7474 35.2578,5.89844 C35.013,6.04948 34.8906,6.27083 34.8906,6.5625 C34.8906,6.79167 34.9792,6.97135 35.1563,7.10156 C35.3333,7.23177 35.6875,7.35938 36.2188,7.48438 L36.5469,7.5625 C37.2552,7.70833 37.7552,7.91927 38.0469,8.19531 C38.3385,8.47135 38.4844,8.85417 38.4844,9.34375 C38.4844,9.89583 38.2656,10.3359 37.8281,10.6641 C37.3906,10.9922 36.7813,11.1563 36,11.1563 C35.6771,11.1563 35.3411,11.125 34.9922,11.0625 C34.6432,11 34.276,10.9063 33.8906,10.7813 L33.8906,9.76563 C34.2552,9.95313 34.6146,10.0938 34.9688,10.1875 C35.3229,10.2813 35.6771,10.3281 36.0313,10.3281 C36.4896,10.3281 36.8438,10.2474 37.0938,10.0859 C37.3438,9.92448 37.4688,9.70313 37.4688,9.42188 C37.4688,9.15104 37.3802,8.94271 37.2031,8.79688 C37.026,8.65104 36.6302,8.51563 36.0156,8.39063 L35.6719,8.29688 C35.0573,8.17188 34.6146,7.97656 34.3438,7.71094 C34.0729,7.44531 33.9375,7.07813 33.9375,6.60938 C33.9375,6.04688 34.138,5.61198 34.5391,5.30469 C34.9401,4.9974 35.5104,4.84375 36.25,4.84375 C36.6146,4.84375 36.9583,4.86979 37.2813,4.92188 C37.6042,4.97396 37.901,5.05208 38.1719,5.15625 M41.0313,3.28125 L41.0313,4.98438 L43.0625,4.98438 L43.0625,5.75 L41.0313,5.75 L41.0313,9.01563 C41.0313,9.50521 41.099,9.82031 41.2344,9.96094 C41.3698,10.1016 41.6406,10.1719 42.0469,10.1719 L43.0625,10.1719 L43.0625,11 L42.0469,11 C41.2865,11 40.7604,10.8568 40.4688,10.5703 C40.1771,10.2839 40.0313,9.76563 40.0313,9.01563 L40.0313,5.75 L39.3125,5.75 L39.3125,4.98438 L40.0313,4.98438 L40.0313,3.28125 L41.0313,3.28125 M47.0938,7.96875 C46.3021,7.96875 45.7526,8.0625 45.4453,8.25 C45.138,8.4375 44.9844,8.75 44.9844,9.1875 C44.9844,9.53125 45.099,9.80729 45.3281,10.0156 C45.5573,10.224 45.8698,10.3281 46.2656,10.3281 C46.8177,10.3281 47.2578,10.1328 47.5859,9.74219 C47.9141,9.35156 48.0781,8.83854 48.0781,8.20313 L48.0781,7.96875 L47.0938,7.96875 M49.0625,7.5625 L49.0625,11 L48.0781,11 L48.0781,10.0938 C47.8594,10.4583 47.5807,10.7266 47.2422,10.8984 C46.9036,11.0703 46.4896,11.1563 46,11.1563 C45.3854,11.1563 44.8958,10.9844 44.5313,10.6406 C44.1667,10.2969 43.9844,9.83333 43.9844,9.25 C43.9844,8.57292 44.2109,8.0625 44.6641,7.71875 C45.1172,7.375 45.7969,7.20313 46.7031,7.20313 L48.0781,7.20313 L48.0781,7.10938 C48.0781,6.65104 47.9297,6.29688 47.6328,6.04688 C47.3359,5.79688 46.9167,5.67188 46.375,5.67188 C46.0313,5.67188 45.6953,5.71354 45.3672,5.79688 C45.0391,5.88021 44.724,6.00521 44.4219,6.17188 L44.4219,5.26563 C44.7865,5.11979 45.1406,5.01302 45.4844,4.94531 C45.8281,4.8776 46.1563,4.84375 46.4688,4.84375 C47.3438,4.84375 47.9948,5.06771 48.4219,5.51563 C48.849,5.96354 49.0625,6.64583 49.0625,7.5625 M52.0781,3.28125 L52.0781,4.98438 L54.1094,4.98438 L54.1094,5.75 L52.0781,5.75 L52.0781,9.01563 C52.0781,9.50521 52.1458,9.82031 52.2813,9.96094 C52.4167,10.1016 52.6875,10.1719 53.0938,10.1719 L54.1094,10.1719 L54.1094,11 L53.0938,11 C52.3333,11 51.8073,10.8568 51.5156,10.5703 C51.224,10.2839 51.0781,9.76563 51.0781,9.01563 L51.0781,5.75 L50.3594,5.75 L50.3594,4.98438 L51.0781,4.98438 L51.0781,3.28125 L52.0781,3.28125 M60.5625,7.75 L60.5625,8.23438 L56.0156,8.23438 C56.0573,8.91146 56.2604,9.42708 56.625,9.78125 C56.9896,10.1354 57.5,10.3125 58.1563,10.3125 C58.5417,10.3125 58.9115,10.2656 59.2656,10.1719 C59.6198,10.0781 59.974,9.94271 60.3281,9.76563 L60.3281,10.6875 C59.974,10.8438 59.6094,10.9609 59.2344,11.0391 C58.8594,11.1172 58.4844,11.1563 58.1094,11.1563 C57.1406,11.1563 56.3776,10.8776 55.8203,10.3203 C55.263,9.76302 54.9844,9.00521 54.9844,8.04688 C54.9844,7.06771 55.25,6.28906 55.7813,5.71094 C56.3125,5.13281 57.0313,4.84375 57.9375,4.84375 C58.7396,4.84375 59.3776,5.10417 59.8516,5.625 C60.3255,6.14583 60.5625,6.85417 60.5625,7.75 M59.5625,7.45313 C59.5625,6.91146 59.4141,6.47917 59.1172,6.15625 C58.8203,5.83333 58.4271,5.67188 57.9375,5.67188 C57.3854,5.67188 56.9453,5.82813 56.6172,6.14063 C56.2891,6.45313 56.099,6.89063 56.0469,7.45313 L59.5625,7.45313 M66.0156,5.15625 L66.0156,6.09375 C65.7344,5.94792 65.4427,5.84115 65.1406,5.77344 C64.8385,5.70573 64.526,5.67188 64.2031,5.67188 C63.7135,5.67188 63.3464,5.7474 63.1016,5.89844 C62.8568,6.04948 62.7344,6.27083 62.7344,6.5625 C62.7344,6.79167 62.8229,6.97135 63,7.10156 C63.1771,7.23177 63.5313,7.35938 64.0625,7.48438 L64.3906,7.5625 C65.099,7.70833 65.599,7.91927 65.8906,8.19531 C66.1823,8.47135 66.3281,8.85417 66.3281,9.34375 C66.3281,9.89583 66.1094,10.3359 65.6719,10.6641 C65.2344,10.9922 64.625,11.1563 63.8438,11.1563 C63.5208,11.1563 63.1849,11.125 62.8359,11.0625 C62.487,11 62.1198,10.9063 61.7344,10.7813 L61.7344,9.76563 C62.099,9.95313 62.4583,10.0938 62.8125,10.1875 C63.1667,10.2813 63.5208,10.3281 63.875,10.3281 C64.3333,10.3281 64.6875,10.2474 64.9375,10.0859 C65.1875,9.92448 65.3125,9.70313 65.3125,9.42188 C65.3125,9.15104 65.224,8.94271 65.0469,8.79688 C64.8698,8.65104 64.474,8.51563 63.8594,8.39063 L63.5156,8.29688 C62.901,8.17188 62.4583,7.97656 62.1875,7.71094 C61.9167,7.44531 61.7813,7.07813 61.7813,6.60938 C61.7813,6.04688 61.9818,5.61198 62.3828,5.30469 C62.7839,4.9974 63.3542,4.84375 64.0938,4.84375 C64.4583,4.84375 64.8021,4.86979 65.125,4.92188 C65.4479,4.97396 65.7448,5.05208 66.0156,5.15625 "/>
</g>

<g fill="none" stroke="#000000" stroke-opacity="1" stroke-width="1" stroke-linecap="square" stroke-linejoin="bevel" transform="matrix(2,0,0,2,363.499,7)"
font-family="sans" font-size="11" font-weight="100" font-style="normal" 
>
</g>

<g fill="none" stroke="#000000" stroke-opacity="1" stroke-width="1" stroke-linecap="square" stroke-linejoin="bevel" transform="matrix(2,0,0,2,363.499,7)"
font-family="Ubuntu" font-size="11" font-weight="400" font-style="normal" 
>
</g>

<g fill="none" stroke="#000000" stroke-opacity="1" stroke-width="1" stroke-linecap="square" stroke-linejoin="bevel" transform="matrix(2,0,0,2,-0.0016,72)"
font-family="Ubuntu" font-size="11" font-weight="400" font-style="normal" 
>
</g>

<g fill="#000000" fill-opacity="1" stroke="#000000" stroke-opacity="1" stroke-width="1" stroke-linecap="square" stroke-linejoin="round" transform="matrix(2,0,0,2,-0.0016,72)"
font-family="Ubuntu" font-size="11" font-weight="400" font-style="normal" 
>
<path vector-effect="none" fill-rule="evenodd" d="M246.15,-18 L246.15,-14.493 L256.17,-18 L246.15,-21.507 L246.15,-18"/>
</g>

<g fill="none" stroke="#000000" stroke-opacity="1" stroke-width="1" stroke-linecap="square" stroke-linejoin="bevel" transform="matrix(2,0,0,2,-0.0016,72)"
font-family="Ubuntu" font-size="11" font-weight="400" font-style="normal" 
>
</g>

<g fill="none" stroke="#000000" stroke-opacity="1" stroke-width="1" stroke-linecap="square" stroke-linejoin="bevel" transform="matrix(1,0,0,1,0,0)"
font-family="Ubuntu" font-size="11" font-weight="400" font-style="normal" 
>
</g>
</g>
</svg>
